<svg xmlns="http://www.w3.org/2000/svg" viewBox="0 0 25.486 23.099">
  <defs>
    <style>
      .cls-1 {
        fill: #3b8c41;
      }
    </style>
  </defs>
  <g id="buff-logo" transform="translate(0 -0.14)">
    <g id="Group_7" data-name="Group 7" transform="translate(0 0.14)">
      <path id="Path_1" data-name="Path 1" class="cls-1" d="M19.237,17.893a.7.7,0,0,1-.772.772H6.951a.7.7,0,0,1-.772-.772V4.834H19.308V9.468H9.268c0,3.089,2.036,4.634,6.178,4.634h3.862v3.791Zm.772-8.425h0c3.581-.211,5.406-1.755,5.406-4.634C25.416,1.745,23.38.2,19.237.2H0V18.665C0,21.754,2.036,23.3,6.178,23.3H19.308c4.142,0,6.178-1.545,6.178-4.634V14.031c-.07-2.879-1.825-4.423-5.476-4.564" transform="translate(0 -0.2)"/>
    </g>
  </g>
</svg>
