<svg width="47" height="69" viewBox="0 0 47 69" fill="none" xmlns="http://www.w3.org/2000/svg">
<path d="M4.88265 53.0167C4.27091 52.6128 3.90322 51.923 3.9043 51.1832V4.43909H42.6064V51.1832C42.6075 51.9232 42.2398 52.613 41.6281 53.0167L23.2553 65.1311L4.88265 53.0167Z" fill="#49AE51"/>
<path d="M40.992 14.9941C40.1019 14.9941 39.3795 15.6921 39.3795 16.552V26.0552C39.3795 26.83 38.7302 27.4572 37.9283 27.4572C37.925 27.4572 37.9207 27.4572 37.9175 27.4572H37.767C36.8822 27.451 36.1609 28.1396 36.1545 28.9943C36.1545 28.9974 36.1545 29.0016 36.1545 29.0047V38.5183C36.1545 39.2931 35.5051 39.9203 34.7032 39.9203C34.7 39.9203 34.6957 39.9203 34.6925 39.9203H34.5527C33.6625 39.9141 32.9359 40.6079 32.9294 41.4678C32.9294 41.4709 32.9294 41.4751 32.9294 41.4782V46.1518C32.9219 50.7694 30.4945 55.0703 26.4791 57.5764C24.4613 58.8591 23.2485 61.0381 23.2539 63.3718L41.6266 51.8745C42.1868 51.5266 42.548 50.947 42.605 50.3063V14.9941H40.992Z" fill="#2B8A33"/>
<path d="M4.7832 4.43922V35.2249H6.34993C7.21484 35.2249 7.91667 34.5115 7.91667 33.6326V22.8576C7.93756 22.0433 8.60504 21.4001 9.40714 21.4224C9.42595 21.4224 9.44475 21.4235 9.46251 21.4245C10.3274 21.4362 11.0386 20.7324 11.0501 19.8535C11.0501 19.846 11.0501 19.8397 11.0501 19.8322V11.8702C11.0501 9.5252 12.9208 7.62383 15.2282 7.62383H35.0742C36.8049 7.62383 38.2078 6.1982 38.2078 4.43909H4.7832V4.43922Z" fill="#A5C7A8"/>
<path d="M26.7136 29.9803L24.955 24.4851C24.7765 23.9201 24.2655 23.6443 23.8135 23.8674C23.5876 23.9795 23.4082 24.2026 23.3193 24.4851L21.5607 29.9803C21.4772 30.2419 21.4772 30.5321 21.5607 30.7937L23.3193 36.2889C23.4979 36.8538 24.0088 37.1297 24.4608 36.9066C24.6868 36.7945 24.8662 36.5714 24.955 36.2889L26.7136 30.7937C26.7963 30.5319 26.7963 30.2419 26.7136 29.9803Z" fill="#2B8A33"/>
<path d="M25.8328 28.6881L24.0741 23.5592C23.8956 23.032 23.3847 22.7745 22.9327 22.9827C22.7067 23.0874 22.5273 23.2956 22.4385 23.5592L20.6798 28.6881C20.5963 28.9323 20.5963 29.2031 20.6798 29.4472L22.4385 34.5761C22.617 35.1034 23.1279 35.3609 23.5798 35.1526C23.8058 35.048 23.9852 34.8398 24.074 34.5761L25.8327 29.4472C25.9154 29.2031 25.9154 28.9323 25.8328 28.6881Z" fill="white"/>
<path d="M23.4981 49.2547C24.0784 49.2547 24.5488 48.7842 24.5488 48.2039C24.5488 47.6235 24.0784 47.1531 23.4981 47.1531C22.9177 47.1531 22.4473 47.6235 22.4473 48.2039C22.4473 48.7842 22.9177 49.2547 23.4981 49.2547Z" fill="#45914B"/>
<path d="M23.4981 17.7326C24.0784 17.7326 24.5488 17.2621 24.5488 16.6818C24.5488 16.1014 24.0784 15.631 23.4981 15.631C22.9177 15.631 22.4473 16.1014 22.4473 16.6818C22.4473 17.2621 22.9177 17.7326 23.4981 17.7326Z" fill="#45914B"/>
<path d="M31.9063 30.3414C32.4866 30.3414 32.957 29.871 32.957 29.2907C32.957 28.7103 32.4866 28.2399 31.9063 28.2399C31.3259 28.2399 30.8555 28.7103 30.8555 29.2907C30.8555 29.871 31.3259 30.3414 31.9063 30.3414Z" fill="#45914B"/>
<path d="M15.0957 30.3414C15.676 30.3414 16.1465 29.871 16.1465 29.2907C16.1465 28.7103 15.676 28.2399 15.0957 28.2399C14.5154 28.2399 14.0449 28.7103 14.0449 29.2907C14.0449 29.871 14.5154 30.3414 15.0957 30.3414Z" fill="#45914B"/>
<path d="M23.4981 11.4281C24.0784 11.4281 24.5488 10.9577 24.5488 10.3773C24.5488 9.79699 24.0784 9.32654 23.4981 9.32654C22.9177 9.32654 22.4473 9.79699 22.4473 10.3773C22.4473 10.9577 22.9177 11.4281 23.4981 11.4281Z" fill="#45914B"/>
<path d="M23.4981 42.9501C24.0784 42.9501 24.5488 42.4796 24.5488 41.8993C24.5488 41.319 24.0784 40.8485 23.4981 40.8485C22.9177 40.8485 22.4473 41.319 22.4473 41.8993C22.4473 42.4796 22.9177 42.9501 23.4981 42.9501Z" fill="#45914B"/>
<path d="M42.4163 0.920654H4.58975C2.26868 0.920654 0.386719 2.80249 0.386719 5.12368V50.1269C0.397227 52.2493 1.47534 54.2238 3.25524 55.3806L22.3577 67.8319C23.0543 68.2848 23.9516 68.2848 24.6483 67.8319L43.7507 55.4121C45.5306 54.2552 46.6087 52.2809 46.6192 50.1584V5.12368C46.6194 2.80249 44.7374 0.920654 42.4163 0.920654ZM42.4163 9.91502C41.5137 9.0954 40.3937 8.5553 39.1905 8.35998C38.994 7.15157 38.4497 6.02736 37.625 5.12368H42.4163V9.91502ZM9.38108 5.12368C8.55831 6.02526 8.014 7.14527 7.81554 8.34947C6.61133 8.54807 5.49132 9.09238 4.58975 9.91502V5.12368H9.38108ZM23.503 63.5553L20.0251 61.2963C21.4761 60.692 22.695 59.6382 23.503 58.2911C24.3111 59.6382 25.5299 60.692 26.981 61.2963L23.503 63.5553ZM42.4163 50.1268C42.4174 50.8392 42.058 51.5033 41.4601 51.892L29.4081 59.762C26.6635 59.5529 24.5453 57.2612 24.5537 54.5083C24.5537 53.9282 24.0829 53.4575 23.5029 53.4575C22.9229 53.4575 22.4521 53.9282 22.4521 54.5083C22.4605 57.2612 20.3423 59.5529 17.5977 59.762L5.5457 51.892C4.9478 51.5032 4.58843 50.8391 4.58948 50.1268V14.5803C4.58948 12.2592 6.47131 10.3774 8.79238 10.3774C9.37241 10.3774 9.84317 9.90661 9.84317 9.32658C9.84317 7.00551 11.725 5.12355 14.0462 5.12355H32.9595C35.2805 5.12355 37.1625 7.00538 37.1625 9.32658C37.1625 9.90661 37.6333 10.3774 38.2133 10.3774C40.5344 10.3774 42.4163 12.2592 42.4163 14.5803V50.1268Z" fill="#45914B"/>
<path d="M43.9968 55.0752C45.7428 53.9403 46.8004 52.0036 46.8107 49.9216V8.83691C45.6717 8.83691 44.7493 9.75945 44.7493 10.8983V50.1276C44.7493 51.1636 44.2308 52.1313 43.3682 52.7044L25.8457 64.3825C24.7758 65.0989 24.1337 66.3007 24.1348 67.5881C24.5337 67.5891 24.9233 67.4747 25.2583 67.2583L43.9968 55.0752Z" fill="#34B03F"/>
<path d="M24.0716 34.5509L25.83 29.201C25.9136 28.9464 25.9136 28.6639 25.83 28.4092L24.0716 23.0594C23.9397 22.6528 23.2539 23.0594 23.2539 24.5252V35.2248C23.6135 35.225 23.938 34.9585 24.0716 34.5509Z" fill="#DDDFE1"/>
<path d="M0.386719 5.0871V40.5024C1.55312 40.5024 2.49772 39.5701 2.49772 38.4192V5.0871C2.49772 3.93605 3.44245 3.00388 4.60872 3.00388H40.4962C41.6626 3.00388 42.6072 2.07158 42.6072 0.920654H4.60885C2.27618 0.920524 0.386719 2.78604 0.386719 5.0871Z" fill="#34B03F"/>
</svg>
