<svg width="95" height="94" viewBox="0 0 95 94" fill="none" xmlns="http://www.w3.org/2000/svg">
<path d="M87.389 46.2064C87.389 67.2868 69.8502 84.3759 48.215 84.3759C26.5798 84.3759 9.04102 67.2868 9.04102 46.2064C9.04102 25.1259 26.5798 8.03687 48.215 8.03687C69.8502 8.03687 87.389 25.1259 87.389 46.2064Z" fill="#3A873F" fill-opacity="0.34"/>
<path d="M22.0978 46.7065C22.0978 49.2028 20.0741 51.2266 17.5777 51.2266C15.0813 51.2266 13.0576 49.2028 13.0576 46.7065C13.0576 44.2101 15.0813 42.1864 17.5777 42.1864C20.0741 42.1864 22.0978 44.2101 22.0978 46.7065Z" fill="#49AE51"/>
<path d="M80.3595 46.7065C80.3595 49.2028 78.3358 51.2266 75.8394 51.2266C73.343 51.2266 71.3193 49.2028 71.3193 46.7065C71.3193 44.2101 73.343 42.1864 75.8394 42.1864C78.3358 42.1864 80.3595 44.2101 80.3595 46.7065Z" fill="#49AE51"/>
<path d="M57.9595 57.3608C57.9784 57.5329 57.9583 57.7071 57.9008 57.8704C57.8432 58.0338 57.7497 58.1821 57.627 58.3045C57.5044 58.427 57.3557 58.5203 57.1921 58.5778C57.0285 58.6352 56.854 58.6553 56.6816 58.6364H37.6223C37.4499 58.6553 37.2754 58.6352 37.1118 58.5778C36.9482 58.5203 36.7996 58.427 36.6769 58.3045C36.5543 58.1821 36.4607 58.0338 36.4032 57.8704C36.3456 57.7071 36.3255 57.5329 36.3444 57.3608V35.7826H58.077V43.4397H41.4577C41.4577 48.5438 44.8279 51.0967 51.6842 51.0967H58.077V57.3608H57.9595ZM59.2374 43.4397C65.1651 43.091 68.1861 40.5398 68.1861 35.7826C68.1877 30.6785 64.8175 28.1256 57.9595 28.1256H26.1162V58.6364C26.1162 63.7406 29.4864 66.2951 36.3427 66.2951H58.077C64.9334 66.2951 68.3036 63.7422 68.3036 58.6381V50.9794C68.1877 46.2223 65.2826 43.671 59.2391 43.438" fill="#49AE51"/>
<path fill-rule="evenodd" clip-rule="evenodd" d="M47.2097 89.0361C70.94 89.0361 90.0615 70.0211 90.0615 46.7074C90.0615 23.3937 70.94 4.37882 47.2097 4.37882C23.4793 4.37882 4.35782 23.3937 4.35782 46.7074C4.35782 70.0211 23.4793 89.0361 47.2097 89.0361ZM47.2097 93.4149C73.2829 93.4149 94.4193 72.5033 94.4193 46.7074C94.4193 20.9116 73.2829 0 47.2097 0C21.1365 0 0 20.9116 0 46.7074C0 72.5033 21.1365 93.4149 47.2097 93.4149Z" fill="#49AE51"/>
<path fill-rule="evenodd" clip-rule="evenodd" d="M47.2103 83.029C67.6334 83.029 84.0581 66.6946 84.0581 46.7069C84.0581 26.7192 67.6334 10.3849 47.2103 10.3849C26.7871 10.3849 10.3624 26.7192 10.3624 46.7069C10.3624 66.6946 26.7871 83.029 47.2103 83.029ZM47.2103 87.3876C69.9549 87.3876 88.3932 69.1742 88.3932 46.7069C88.3932 24.2396 69.9549 6.02625 47.2103 6.02625C24.4656 6.02625 6.02734 24.2396 6.02734 46.7069C6.02734 69.1742 24.4656 87.3876 47.2103 87.3876Z" fill="#49AE51"/>
</svg>
