<svg width="16" height="18" viewBox="0 0 16 18" fill="none" xmlns="http://www.w3.org/2000/svg">
<path d="M13.4371 0H1.78291C0.800137 0 0 0.800137 0 1.79161V13.5501C0 14.5416 0.800137 15.3418 1.78291 15.3418H11.6455L11.1845 13.7328L12.2978 14.7677L13.3501 15.7418L15.22 17.3943V1.79161C15.22 0.800137 14.4199 0 13.4371 0ZM10.08 11.3585C10.08 11.3585 9.76689 10.9845 9.50598 10.654C10.6453 10.3322 11.0802 9.61904 11.0802 9.61904C10.7236 9.85386 10.3844 10.0191 10.08 10.1322C9.64513 10.3148 9.22767 10.4366 8.8189 10.5061C7.98398 10.6627 7.21863 10.6192 6.56634 10.4975C6.07061 10.4018 5.64445 10.2626 5.28786 10.1235C5.08783 10.0452 4.8704 9.94953 4.65297 9.82777C4.62688 9.81038 4.60079 9.80168 4.5747 9.78429C4.5573 9.77559 4.54861 9.76689 4.53991 9.75819C4.38336 9.67122 4.29639 9.61034 4.29639 9.61034C4.29639 9.61034 4.71385 10.3061 5.81839 10.6366C5.55747 10.9671 5.23568 11.3585 5.23568 11.3585C3.31361 11.2976 2.58305 10.0365 2.58305 10.0365C2.58305 7.23602 3.83544 4.96607 3.83544 4.96607C5.08783 4.02678 6.27934 4.05287 6.27934 4.05287L6.36631 4.15723C4.80082 4.60949 4.07896 5.29656 4.07896 5.29656C4.07896 5.29656 4.2703 5.19219 4.59209 5.04434C5.52269 4.63558 6.26194 4.52251 6.56634 4.49642C6.61853 4.48773 6.66201 4.47903 6.71419 4.47903C7.24472 4.40945 7.84482 4.39206 8.47102 4.46163C9.29725 4.5573 10.1844 4.80082 11.0889 5.29656C11.0889 5.29656 10.4018 4.64427 8.92327 4.19202L9.04503 4.05287C9.04503 4.05287 10.2365 4.02678 11.4889 4.96607C11.4889 4.96607 12.7413 7.23602 12.7413 10.0365C12.7413 10.0365 12.0021 11.2976 10.08 11.3585Z" fill="#5A5A5A"/>
</svg>
