<svg width="94" height="71" viewBox="0 0 94 71" fill="none" xmlns="http://www.w3.org/2000/svg">
<path d="M20.2881 46.5435H84.8363L85.4569 1.526H19.0468L2.28906 18.4075V29.6619L20.2881 46.5435Z" fill="white" fill-opacity="0.34"/>
<path d="M22.0514 47.3828L73.4222 67.0957L85.6097 45.5133L89.5497 25.2252L86.8561 24.327L84.3636 45.5132L73.4221 47.3827L40.7451 47.3828L22.0514 47.3828Z" fill="white" fill-opacity="0.65"/>
<path fill-rule="evenodd" clip-rule="evenodd" d="M88.8936 26.0845L86.0615 24.8043L87.5859 21.3641L91.9839 23.3522C92.8692 23.7523 93.3033 24.7708 92.9826 25.6953L88.0071 40.0394L84.4853 38.7933L88.8936 26.0845ZM19.1998 46.9093C19.5679 45.9372 20.6465 45.4505 21.609 45.8223L73.5621 65.8905L81.4062 46.2493L84.8669 47.6592L76.3374 69.0166C75.9569 69.9695 74.8907 70.4389 73.9406 70.0718L20.276 49.3426C19.3135 48.9708 18.8317 47.8814 19.1998 46.9093Z" fill="white"/>
<path d="M56.4621 18.3121C56.4621 20.4191 54.7541 22.1271 52.6471 22.1271C50.5401 22.1271 48.832 20.4191 48.832 18.3121C48.832 16.2051 50.5401 14.4971 52.6471 14.4971C54.7541 14.4971 56.4621 16.2051 56.4621 18.3121Z" fill="white"/>
<path d="M70.1965 31.2832C70.1965 33.3902 68.4884 35.0982 66.3814 35.0982C64.2745 35.0982 62.5664 33.3902 62.5664 31.2832C62.5664 29.1762 64.2745 27.4681 66.3814 27.4681C68.4884 27.4681 70.1965 29.1762 70.1965 31.2832Z" fill="white"/>
<path fill-rule="evenodd" clip-rule="evenodd" d="M67.0015 12.4711C67.8847 12.9946 68.1712 14.1263 67.6412 14.9988L54.5857 36.4928C54.0558 37.3653 52.9101 37.6482 52.0269 37.1247C51.1436 36.6012 50.8572 35.4695 51.3872 34.597L64.4426 13.103C64.9726 12.2305 66.1182 11.9476 67.0015 12.4711Z" fill="white"/>
<path d="M24.9892 25.5929L26.2906 13.7343H38.9325V17.5963H29.9623L29.4046 22.6122C30.4684 22.0246 31.5994 21.7308 32.7975 21.7308C34.9458 21.7308 36.6293 22.4199 37.8481 23.7981C39.0668 25.1763 39.6762 27.1046 39.6762 29.5832C39.6762 31.0896 39.3663 32.441 38.7466 33.6376C38.1372 34.8235 37.2593 35.7476 36.1129 36.41C34.9664 37.0616 33.6134 37.3875 32.0538 37.3875C30.6905 37.3875 29.4253 37.1044 28.2582 36.5382C27.0911 35.9613 26.1667 35.1546 25.485 34.1183C24.8137 33.0821 24.4573 31.9015 24.416 30.5768H28.8469C28.9398 31.549 29.2652 32.3075 29.8229 32.8524C30.391 33.3865 31.1295 33.6536 32.0383 33.6536C33.0505 33.6536 33.8303 33.2797 34.3777 32.5319C34.9251 31.7733 35.1988 30.705 35.1988 29.3268C35.1988 28.0021 34.8838 26.9871 34.2538 26.282C33.6238 25.5769 32.7303 25.2243 31.5736 25.2243C30.5097 25.2243 29.6473 25.5128 28.9863 26.0897L28.5525 26.5064L24.9892 25.5929Z" fill="white"/>
<path fill-rule="evenodd" clip-rule="evenodd" d="M20.9081 3.75635C20.7454 3.75635 20.5892 3.82135 20.4736 3.93725L3.89101 20.5515C3.77363 20.6691 3.70757 20.8294 3.70757 20.9966V28.6508C3.70757 28.8232 3.77781 28.9881 3.90171 29.1064L20.4497 44.9057C20.5643 45.0152 20.7159 45.0762 20.8734 45.0762H83.4204C83.7617 45.0762 84.0383 44.7959 84.0383 44.4501V4.3824C84.0383 4.03664 83.7617 3.75635 83.4204 3.75635H20.9081ZM17.8666 1.26633C18.6763 0.455029 19.7692 0 20.9081 0H83.4204C85.8093 0 87.7459 1.96207 87.7459 4.3824V44.4501C87.7459 46.8704 85.8093 48.8325 83.4204 48.8325H20.8734C19.7707 48.8325 18.7095 48.4057 17.9069 47.6395L1.35897 31.8401C0.491673 31.0121 0 29.8582 0 28.6508V20.9966C0 19.8259 0.462374 18.7038 1.28403 17.8806L17.8666 1.26633Z" fill="white"/>
</svg>
