<svg width="123" height="26" viewBox="0 0 123 26" fill="none" xmlns="http://www.w3.org/2000/svg">
<path d="M102.719 5.43524C99.4661 5.43524 96.1786 5.47021 92.926 5.40026C92.1216 5.40026 91.9467 5.64508 91.9817 6.37954C92.0516 7.53369 91.9817 8.72281 91.9817 9.91193C92.0166 13.0596 90.5827 14.7733 87.505 15.263C86.7705 15.4029 86.0011 15.4378 85.2666 15.4378C80.6151 15.4378 75.9285 15.4378 71.277 15.4029C70.6474 15.4029 70.4026 15.5428 70.4376 16.2073C70.5075 17.5363 70.4726 18.9003 70.4376 20.2293C70.4026 23.4819 68.8637 25.1956 65.6111 25.6153C63.5127 25.8602 63.5127 25.8601 63.5127 23.7967C63.5127 19.5648 63.5127 15.3679 63.5127 11.136C63.5127 10.5065 63.6876 10.3316 64.3171 10.3666C70.9272 10.4016 77.5723 10.3666 84.1824 10.4016C84.8819 10.4016 85.0918 10.2267 85.0568 9.52721C85.0218 7.88343 84.9519 6.23964 85.1267 4.59586C85.3016 2.88212 86.176 1.693 87.7498 0.993517C88.9389 0.43393 90.233 0.259059 91.492 0.259059C97.0529 0.259059 102.614 0.119163 108.175 0.329008C108.979 0.363982 109.784 0.573827 110.518 0.85362C112.232 1.51813 113.211 2.7772 113.456 4.59586C113.526 5.15544 113.456 5.43524 112.756 5.43524C109.434 5.40026 106.076 5.43524 102.719 5.43524Z" fill="#00ED7A"/>
<path d="M60.4699 10.5414C60.4699 14.0738 60.5399 17.6412 60.4699 21.1736C60.435 23.0971 59.4557 24.4961 57.6021 25.2306C56.6228 25.6153 55.6085 25.8251 54.5943 25.8601C49.0684 25.8601 43.5425 25.8601 37.9816 25.8601C36.8624 25.8601 35.7432 25.6153 34.729 25.1606C33.1901 24.4611 32.2808 23.272 32.1059 21.5583C32.0709 21.1036 32.036 20.614 32.036 20.1243C32.036 13.6891 32.036 7.25383 32.001 0.853558C32.001 0.119101 32.2108 -0.0557699 32.9103 0.0141785C34.0994 0.154075 35.2886 0.293972 36.4077 0.818584C37.8417 1.51807 38.716 2.63724 38.8909 4.24605C38.9608 4.80564 38.9958 5.36523 38.9958 5.92481C38.9958 10.4365 38.9958 14.9132 38.9958 19.4248C38.9958 20.579 39.1007 20.6839 40.2199 20.6839C44.2769 20.6839 48.3339 20.6839 52.3909 20.6839C53.4751 20.6839 53.615 20.544 53.615 19.4248C53.615 16.452 53.65 13.5142 53.65 10.5414C53.8948 10.3665 54.1746 10.3316 54.4544 10.3316C56.2031 10.3316 57.9518 10.3316 59.7005 10.3316C59.9803 10.3316 60.2601 10.3665 60.4699 10.5414Z" fill="#49AE51"/>
<path d="M108.385 10.4015C112.827 10.4015 117.268 10.4015 121.71 10.4015C122.654 10.4015 122.689 10.4365 122.514 11.3808C122.13 13.5142 120.626 14.8433 118.143 15.228C117.373 15.3679 116.604 15.4378 115.799 15.4378C111.148 15.4378 106.531 15.4378 101.88 15.4029C101.215 15.4029 101.04 15.5777 101.04 16.2422C101.075 17.7461 101.075 19.25 101.04 20.7539C100.97 23.1671 99.8162 24.636 97.5079 25.3355C96.6335 25.6153 95.6892 25.6503 94.7799 25.7552C94.3253 25.7902 94.1504 25.6853 94.1504 25.1606C94.1504 20.4042 94.1854 15.6477 94.1504 10.9262C94.1504 10.2966 94.4651 10.3666 94.8848 10.3666C99.3965 10.4015 103.908 10.4015 108.385 10.4015Z" fill="#00ED7A"/>
<path d="M60.4702 10.5415C58.1969 10.5415 55.9235 10.5415 53.6502 10.5415C53.6502 8.68792 53.5803 6.79931 53.6502 4.94568C53.7202 3.09205 54.6295 1.72806 56.3782 0.993598C57.2176 0.643856 58.057 0.399037 58.9663 0.364063C64.842 0.189192 70.7526 0.189192 76.6283 0.364063C77.6425 0.399037 78.6218 0.643856 79.5311 1.09852C81 1.83298 81.8044 2.98713 82.0143 4.63091C82.0842 5.3304 81.8744 5.47029 81.2448 5.47029C74.7746 5.43532 68.3044 5.47029 61.7992 5.47029C61.5894 5.47029 61.4145 5.50527 61.2047 5.47029C60.68 5.40034 60.4702 5.57521 60.5052 6.16978C60.5401 7.60372 60.5052 9.07263 60.4702 10.5415Z" fill="#00ED7A"/>
<path fill-rule="evenodd" clip-rule="evenodd" d="M23.6367 10.6413C23.395 10.5997 23.1515 10.5578 22.9081 10.5071C23.5376 10.4022 24.1322 10.2972 24.6918 10.1573C27.2449 9.45785 28.434 7.88401 28.434 5.29593C28.434 2.77779 27.1749 1.16897 24.6918 0.539439C24.0273 0.364568 23.3278 0.224671 22.6283 0.224671C18.956 0.207184 15.2837 0.207184 11.6115 0.207184C7.93917 0.207184 4.26686 0.207184 0.594561 0.189697C0.104923 0.189697 0 0.364568 0 0.819232V20.8944C0.0349742 23.5175 1.29404 25.0563 3.84716 25.6859C4.68654 25.8957 5.52592 26.0006 6.40027 26.0006H21.9988C22.9081 26.0006 23.8524 25.8957 24.7267 25.6509C27.07 25.0214 28.399 23.4825 28.434 21.1742C28.469 19.2156 28.469 17.2571 28.434 15.2985C28.399 13.2351 27.3148 11.8011 25.3563 11.0667C24.81 10.8432 24.2284 10.7431 23.6367 10.6413ZM6.92486 5.99473V12.8846C6.92486 15.158 6.92486 17.4313 6.99481 19.7046C6.99481 20.6839 7.13471 20.8588 8.07901 20.8588H20.5648C21.3342 20.8937 21.614 20.544 21.614 19.8095C21.579 18.7603 21.5441 17.6761 21.614 16.6269C21.649 15.8924 21.4741 15.6826 20.7047 15.6826C20.2311 15.6826 19.7555 15.6924 19.2789 15.7023C17.7493 15.7341 16.209 15.766 14.6891 15.4727C12.206 15.0181 10.842 13.724 10.4573 11.5556C10.3685 11.0231 10.3248 10.7609 10.4359 10.6317C10.5436 10.5064 10.7971 10.5064 11.2966 10.5064C12.3575 10.5064 13.4184 10.5025 14.4793 10.4986C16.6011 10.4909 18.7228 10.4831 20.8446 10.5064C21.4042 10.5414 21.614 10.3665 21.579 9.77194C21.5441 8.51287 21.5441 7.2538 21.579 5.99473C21.614 5.43514 21.4042 5.3652 20.9145 5.3652H20.9144C16.4727 5.3652 12.031 5.3652 7.58937 5.33022C7.06476 5.33022 6.92486 5.47012 6.92486 5.99473Z" fill="#49AE51"/>
</svg>
