<svg width="48" height="69" viewBox="0 0 48 69" fill="none" xmlns="http://www.w3.org/2000/svg">
<path d="M5.62997 51.75C5.02724 51.3581 4.66496 50.6886 4.66602 49.9705V4.60315H42.7988V49.9705C42.7999 50.6887 42.4376 51.3582 41.8349 51.75L23.7324 63.5076L5.62997 51.75Z" fill="#F4BA26"/>
<path d="M23.7292 51.2095C24.3142 51.2095 24.7885 50.7353 24.7885 50.1502C24.7885 49.5652 24.3142 49.0909 23.7292 49.0909C23.1442 49.0909 22.6699 49.5652 22.6699 50.1502C22.6699 50.7353 23.1442 51.2095 23.7292 51.2095Z" fill="#B38715"/>
<path d="M4.66602 4.60304V35.3211H6.25482C7.13192 35.3211 7.84363 34.6092 7.84363 33.7323V22.981C7.86481 22.1685 8.5417 21.5267 9.35511 21.5489C9.37417 21.5489 9.39324 21.55 9.41125 21.5511C10.2883 21.5627 11.0096 20.8604 11.0212 19.9834C11.0212 19.976 11.0212 19.9697 11.0212 19.9622V12.0177C11.0212 9.67784 12.9183 7.78065 15.2581 7.78065H35.3838C37.1389 7.78065 38.5615 6.35815 38.5615 4.60291H4.66602V4.60304Z" fill="#FFDB6F"/>
<path d="M11.0183 12.0179C11.6033 12.0179 12.0776 11.5436 12.0776 10.9586C12.0776 10.3736 11.6033 9.89929 11.0183 9.89929C10.4332 9.89929 9.95898 10.3736 9.95898 10.9586C9.95898 11.5436 10.4332 12.0179 11.0183 12.0179Z" fill="#B38715"/>
<path d="M36.4382 12.0176C37.0232 12.0176 37.4975 11.5434 37.4975 10.9583C37.4975 10.3733 37.0232 9.89905 36.4382 9.89905C35.8532 9.89905 35.3789 10.3733 35.3789 10.9583C35.3789 11.5434 35.8532 12.0176 36.4382 12.0176Z" fill="#B38715"/>
<path d="M41.2098 14.1361C40.3327 14.1361 39.621 14.848 39.621 15.7249V25.417C39.621 26.2073 38.9812 26.847 38.1911 26.847C38.1879 26.847 38.1837 26.847 38.1805 26.847H38.0322C37.1604 26.8406 36.4498 27.5429 36.4434 28.4146C36.4434 28.4178 36.4434 28.422 36.4434 28.4252V30.4589L35.5218 30.3212L33.986 27.0481C33.8006 26.6498 33.3282 26.4782 32.9309 26.6625C32.7615 26.742 32.6248 26.8775 32.5454 27.0481L31.0095 30.3212L27.5881 30.8402C27.157 30.9197 26.871 31.3339 26.9504 31.765C26.9759 31.9048 27.0394 32.0351 27.1326 32.1432L29.6324 34.7065L29.0286 38.3715C28.9577 38.8048 29.25 39.2137 29.6833 39.2846C29.8581 39.3132 30.0381 39.2825 30.1939 39.1978L33.2657 37.5136L36.0833 39.0707C35.8163 39.3768 35.4307 39.5548 35.024 39.5579H34.8651C33.988 39.5516 33.272 40.2592 33.2657 41.1361C33.2657 41.1393 33.2657 41.1436 33.2657 41.1467V45.9133C33.2583 50.6226 30.8665 55.009 26.9102 57.565C24.922 58.8732 23.7271 61.0955 23.7324 63.4756L41.835 51.7497C42.3868 51.3949 42.7428 50.8038 42.7989 50.1503V14.1361H41.2098Z" fill="#D0A022"/>
<path d="M22.6707 31.3805C22.5743 31.0987 22.3296 30.8943 22.0351 30.8508L18.6138 30.3318L17.0779 27.0587C16.8925 26.6604 16.4201 26.4888 16.0229 26.6731C15.8534 26.7526 15.7167 26.8882 15.6373 27.0587L14.1014 30.3318L10.6801 30.8508C10.2458 30.9144 9.94492 31.3169 10.0085 31.7512C10.0297 31.8953 10.09 32.0309 10.1822 32.1432L12.682 34.7065L12.0782 38.3715C12.0072 38.8048 12.2996 39.2137 12.7328 39.2847C12.9076 39.3133 13.0877 39.2825 13.2434 39.1978L16.3152 37.5137L19.3659 39.1978C19.7504 39.4086 20.2334 39.2666 20.4442 38.8821C20.529 38.7264 20.5597 38.5463 20.5311 38.3715L19.9379 34.7383L22.4483 32.1432C22.6527 31.9472 22.7375 31.6559 22.6707 31.3805Z" fill="#F7B84E"/>
<path d="M22.9755 28.426C22.8535 28.0694 22.5438 27.8107 22.1711 27.7557L17.841 27.0988L15.8973 22.9564C15.6627 22.4523 15.0648 22.2351 14.562 22.4684C14.3475 22.569 14.1746 22.7406 14.074 22.9564L12.1303 27.0988L7.74657 27.7289C7.19825 27.8187 6.82689 28.3349 6.91538 28.8832C6.94755 29.0843 7.0414 29.2706 7.1835 29.4181L10.3472 32.6623L9.56967 37.2873C9.47984 37.8356 9.84986 38.3531 10.3982 38.4429C10.6194 38.4791 10.8473 38.4402 11.0444 38.333L14.932 36.1881L18.7929 38.3196C19.2795 38.5864 19.8909 38.4067 20.1577 37.9201C20.2649 37.723 20.3038 37.4951 20.2676 37.2739L19.5302 32.6891L22.694 29.4449C22.9728 29.186 23.0814 28.792 22.9755 28.426Z" fill="white"/>
<path d="M22.9779 28.4261C22.8559 28.0695 22.5462 27.8108 22.1735 27.7558L21.5032 27.6486L21.4093 27.7826L18.7282 30.5442C18.4319 30.8498 18.2965 31.2775 18.3663 31.6971L18.9561 35.6116C19.046 36.1599 18.6759 36.6774 18.1276 36.7672C17.9064 36.8034 17.6785 36.7645 17.4814 36.6573L14.2641 34.8742C13.8498 34.6343 13.3377 34.6343 12.9234 34.8742L9.70609 36.6573L9.57203 37.2874C9.48221 37.8357 9.85222 38.3532 10.4005 38.443C10.6217 38.4792 10.8497 38.4403 11.0467 38.3331L14.9344 36.1882L18.7953 38.3197C19.2819 38.5865 19.8932 38.4068 20.16 37.9202C20.2673 37.7231 20.3062 37.4952 20.27 37.274L19.5326 32.6892L22.6963 29.445C22.9752 29.1861 23.0838 28.7921 22.9779 28.4261Z" fill="#DDDFE1"/>
<path d="M39.8056 28.426C39.6836 28.0694 39.3739 27.8107 39.0012 27.7557L34.6711 27.0988L32.7274 22.9564C32.4928 22.4523 31.8948 22.2351 31.3921 22.4684C31.1776 22.569 31.0047 22.7406 30.9041 22.9564L28.9604 27.0988L24.5766 27.7289C24.0283 27.8187 23.657 28.3349 23.7455 28.8832C23.7776 29.0843 23.8715 29.2706 24.0136 29.4181L27.1773 32.6623L26.3997 37.2873C26.3099 37.8356 26.6799 38.3531 27.2283 38.4429C27.4495 38.4791 27.6774 38.4402 27.8744 38.333L31.7621 36.1881L35.623 38.3196C36.1096 38.5864 36.7209 38.4067 36.9877 37.9201C37.095 37.723 37.1339 37.4951 37.0977 37.2739L36.3603 32.6891L39.524 29.4449C39.8029 29.186 39.9115 28.792 39.8056 28.426Z" fill="white"/>
<path d="M39.806 28.4261C39.684 28.0695 39.3743 27.8108 39.0016 27.7558L38.3313 27.6486L38.2375 27.7826L35.5564 30.5442C35.2601 30.8498 35.1247 31.2775 35.1944 31.6971L35.7843 35.6116C35.8741 36.1599 35.5041 36.6774 34.9557 36.7672C34.7345 36.8034 34.5066 36.7645 34.3096 36.6573L31.0922 34.8742C30.6779 34.6343 30.1658 34.6343 29.7516 34.8742L26.5342 36.6573L26.4002 37.2874C26.3103 37.8357 26.6803 38.3532 27.2287 38.443C27.4499 38.4792 27.6778 38.4403 27.8748 38.3331L31.7625 36.1882L35.6234 38.3197C36.11 38.5865 36.7214 38.4068 36.9881 37.9202C37.0954 37.7231 37.1343 37.4952 37.0981 37.274L36.3607 32.6892L39.5245 29.445C39.8033 29.1861 39.9119 28.7921 39.806 28.4261Z" fill="#DDDFE1"/>
<path d="M42.7974 0.365967H4.66477C2.32493 0.365967 0.427734 2.26303 0.427734 4.603V49.9704C0.438327 52.11 1.52516 54.1004 3.31947 55.2666L22.5765 67.8186C23.2788 68.2752 24.1833 68.2752 24.8856 67.8186L44.1426 55.2983C45.9369 54.1321 47.0237 52.1418 47.0343 50.0021V4.603C47.0345 2.26303 45.1373 0.365967 42.7974 0.365967ZM42.7974 9.43311C41.8875 8.60686 40.7584 8.06239 39.5455 7.86549C39.3474 6.6473 38.7987 5.51399 37.9673 4.603H42.7974V9.43311ZM9.49487 4.603C8.66545 5.51188 8.11674 6.64095 7.91666 7.8549C6.70271 8.0551 5.57364 8.60382 4.66477 9.43311V4.603H9.49487ZM23.7311 63.5075L20.225 61.2301C21.6877 60.621 22.9165 59.5587 23.7311 58.2007C24.5457 59.5587 25.7743 60.621 27.2372 61.2301L23.7311 63.5075ZM42.7974 49.9702C42.7985 50.6884 42.4362 51.3579 41.8335 51.7497L29.6839 59.6834C26.9172 59.4726 24.7818 57.1624 24.7903 54.3872C24.7903 53.8025 24.3157 53.3279 23.731 53.3279C23.1462 53.3279 22.6717 53.8025 22.6717 54.3872C22.6801 57.1624 20.5447 59.4726 17.778 59.6834L5.62846 51.7497C5.02572 51.3578 4.66344 50.6883 4.6645 49.9702V14.1361C4.6645 11.7963 6.56156 9.8992 8.90141 9.8992C9.48614 9.8992 9.9607 9.42464 9.9607 8.83991C9.9607 6.50006 11.8578 4.60287 14.1977 4.60287H33.2641C35.6039 4.60287 37.5011 6.49993 37.5011 8.83991C37.5011 9.42464 37.9757 9.8992 38.5604 9.8992C40.9002 9.8992 42.7974 11.7963 42.7974 14.1361V49.9702Z" fill="#B38715"/>
<path d="M0.427734 4.60312V40.6173C1.59825 40.6173 2.54619 39.6693 2.54619 38.4989V4.60312C2.54619 3.4326 3.49425 2.48466 4.66464 2.48466H40.6788C41.8494 2.48466 42.7973 1.5366 42.7973 0.366211H4.66477C2.32387 0.366079 0.427734 2.26314 0.427734 4.60312Z" fill="#E4BD58"/>
<path d="M44.144 55.2984C45.9384 54.1321 47.0252 52.1418 47.0358 50.0022V7.78064C45.8653 7.78064 44.9173 8.72871 44.9173 9.89909V50.2139C44.9173 51.2785 44.3845 52.273 43.498 52.862L25.4907 64.8632C24.3912 65.5995 23.7314 66.8345 23.7324 68.1575C24.1424 68.1586 24.5428 68.041 24.8871 67.8185L44.144 55.2984Z" fill="#E4BD58"/>
</svg>
