<svg width="16" height="16" viewBox="0 0 16 16" fill="none" xmlns="http://www.w3.org/2000/svg">
<path d="M8.7734 9.65042H12.6802C11.9944 11.5893 10.1371 12.9793 7.96272 12.9633C5.32437 12.9438 3.14282 10.8332 3.04039 8.19676C2.9306 5.3707 5.19788 3.03657 7.99999 3.03657C9.28121 3.03657 10.4504 3.52474 11.3319 4.32467C11.5406 4.51419 11.8584 4.51539 12.0638 4.3221L13.4987 2.97158C13.7231 2.76034 13.7239 2.40363 13.5002 2.19168C12.1023 0.867351 10.2271 0.0418876 8.15922 0.00150667C3.74864 -0.084603 0.0309213 3.53162 0.000199009 7.94296C-0.0307961 12.3874 3.56273 16 7.99999 16C12.2672 16 15.7532 12.6588 15.9867 8.44996C15.9929 8.3972 15.997 6.61383 15.997 6.61383H8.7734C8.47731 6.61383 8.23731 6.85383 8.23731 7.14992V9.11434C8.23731 9.41043 8.47736 9.65042 8.7734 9.65042Z" fill="#FF9286"/>
</svg>
