<svg width="11" height="10" viewBox="0 0 11 10" fill="none" xmlns="http://www.w3.org/2000/svg">
<path d="M10.1062 0.929709C9.52908 0.33001 8.7618 0 7.94553 0C7.12913 0 6.36177 0.33001 5.7844 0.929709L5.49998 1.22528L5.21556 0.929709C4.63836 0.33001 3.87083 0 3.05461 0C2.23842 0 1.47083 0.33001 0.893686 0.929709C-0.297895 2.16786 -0.297895 4.18239 0.893686 5.42007L5.16346 9.85632C5.23327 9.92912 5.32018 9.9737 5.41098 9.99086C5.44143 9.9971 5.47205 10 5.50274 10C5.62352 10 5.74451 9.95214 5.8365 9.85632L10.1063 5.42007C11.2979 4.18239 11.2979 2.16786 10.1062 0.929709ZM9.43871 4.72654L5.50001 8.81885L1.56122 4.72654C0.737746 3.87108 0.737746 2.4792 1.56122 1.6233C1.9601 1.20893 2.49062 0.981011 3.05461 0.981011C3.61866 0.981011 4.14903 1.20893 4.54777 1.6233L5.16621 2.26606C5.34349 2.44998 5.6567 2.44998 5.83395 2.26606L6.45217 1.6233C6.85093 1.20893 7.38133 0.981011 7.94555 0.981011C8.5096 0.981011 9.03995 1.20893 9.43871 1.6233C10.2623 2.4792 10.2623 3.87105 9.43871 4.72654Z" fill="#5A5A5A"/>
</svg>
