<svg width="40" height="36" viewBox="0 0 40 36" fill="none" xmlns="http://www.w3.org/2000/svg">
<path d="M29.6667 27.2856C29.6842 27.4462 29.6655 27.6087 29.6119 27.7612C29.5583 27.9136 29.4712 28.0521 29.3569 28.1663C29.2426 28.2806 29.1042 28.3678 28.9517 28.4214C28.7993 28.475 28.6368 28.4937 28.4761 28.4761H10.7196C10.559 28.4937 10.3964 28.475 10.244 28.4214C10.0916 28.3678 9.95309 28.2806 9.83883 28.1663C9.72456 28.0521 9.63741 27.9136 9.58379 27.7612C9.53018 27.6087 9.51147 27.4462 9.52905 27.2856V7.1464H29.7762V14.2928H14.2928C14.2928 19.0566 17.4327 21.4392 23.8203 21.4392H29.7762V27.2856H29.6667ZM30.8572 14.2928C36.3797 13.9674 39.1942 11.5863 39.1942 7.1464C39.1957 2.38265 36.0559 0 29.6667 0H0V28.4761C0 33.2399 3.13985 35.6241 9.52751 35.6241H29.7762C36.1638 35.6241 39.3037 33.2414 39.3037 28.4777V21.3297C39.1957 16.8898 36.4892 14.5087 30.8588 14.2913" fill="#49AE51"/>
</svg>
