<svg width="36" height="52" viewBox="0 0 36 52" fill="none" xmlns="http://www.w3.org/2000/svg">
<path d="M4.26311 39.3715C3.8116 39.0779 3.54022 38.5764 3.54102 38.0385V4.0542H32.1059V38.0385C32.1067 38.5765 31.8354 39.078 31.3839 39.3715L17.8234 48.179L4.26311 39.3715Z" fill="#49AE51"/>
<path d="M17.8218 38.9669C18.2601 38.9669 18.6153 38.6116 18.6153 38.1734C18.6153 37.7351 18.2601 37.3799 17.8218 37.3799C17.3836 37.3799 17.0283 37.7351 17.0283 38.1734C17.0283 38.6116 17.3836 38.9669 17.8218 38.9669Z" fill="#347E3A"/>
<path d="M3.54102 4.05405V27.0646H4.73118C5.3882 27.0646 5.92133 26.5314 5.92133 25.8745V17.8208C5.9372 17.2122 6.44426 16.7314 7.05357 16.7481C7.06785 16.7481 7.08213 16.7489 7.09562 16.7497C7.75265 16.7584 8.29293 16.2323 8.30165 15.5754C8.30165 15.5698 8.30165 15.5651 8.30165 15.5595V9.6083C8.30165 7.85554 9.72272 6.43437 11.4755 6.43437H26.5514C27.8661 6.43437 28.9318 5.36879 28.9318 4.05396H3.54102V4.05405Z" fill="#A5C7A8"/>
<path d="M8.30034 9.60874C8.73858 9.60874 9.09385 9.25347 9.09385 8.81523C9.09385 8.37699 8.73858 8.02173 8.30034 8.02173C7.8621 8.02173 7.50684 8.37699 7.50684 8.81523C7.50684 9.25347 7.8621 9.60874 8.30034 9.60874Z" fill="#347E3A"/>
<path d="M27.3443 9.6085C27.7825 9.6085 28.1378 9.25323 28.1378 8.81499C28.1378 8.37675 27.7825 8.02148 27.3443 8.02148C26.906 8.02148 26.5508 8.37675 26.5508 8.81499C26.5508 9.25323 26.906 9.6085 27.3443 9.6085Z" fill="#347E3A"/>
<path d="M30.9154 11.1953C30.2584 11.1953 29.7253 11.7285 29.7253 12.3855V19.6458C29.7253 20.2377 29.246 20.7169 28.6541 20.7169C28.6517 20.7169 28.6486 20.7169 28.6462 20.7169H28.5351C27.882 20.7121 27.3497 21.2382 27.3449 21.8912C27.3449 21.8936 27.3449 21.8967 27.3449 21.8991V23.4225L26.6546 23.3194L25.5041 20.8676C25.3652 20.5692 25.0113 20.4406 24.7138 20.5787C24.5868 20.6382 24.4844 20.7398 24.4249 20.8676L23.2744 23.3194L20.7115 23.7082C20.3886 23.7677 20.1743 24.078 20.2338 24.4009C20.2529 24.5057 20.3005 24.6033 20.3703 24.6842L22.2429 26.6044L21.7906 29.3498C21.7374 29.6744 21.9564 29.9807 22.281 30.0338C22.4119 30.0553 22.5468 30.0323 22.6634 29.9688L24.9645 28.7072L27.0751 29.8736C26.8752 30.1029 26.5863 30.2362 26.2816 30.2386H26.1626C25.5056 30.2338 24.9693 30.7639 24.9645 31.4208C24.9645 31.4232 24.9645 31.4263 24.9645 31.4287V34.9993C24.959 38.527 23.1673 41.8128 20.2037 43.7275C18.7144 44.7075 17.8193 46.3721 17.8233 48.155L31.3837 39.3713C31.7971 39.1055 32.0637 38.6627 32.1058 38.1732V11.1953H30.9154Z" fill="#2B8A33"/>
<path d="M17.0306 24.1132C16.9584 23.9021 16.7751 23.749 16.5545 23.7164L13.9916 23.3276L12.8411 20.8758C12.7022 20.5774 12.3483 20.4489 12.0507 20.5869C11.9238 20.6464 11.8214 20.748 11.7619 20.8758L10.6114 23.3276L8.04849 23.7164C7.72316 23.764 7.4978 24.0656 7.54541 24.3909C7.56128 24.4988 7.60651 24.6004 7.67554 24.6845L9.54812 26.6047L9.09582 29.3501C9.04266 29.6747 9.26166 29.9809 9.58621 30.0341C9.71714 30.0555 9.85203 30.0325 9.96868 29.969L12.2697 28.7075L14.5549 29.969C14.843 30.1269 15.2048 30.0206 15.3627 29.7326C15.4262 29.6159 15.4492 29.481 15.4278 29.3501L14.9834 26.6285L16.8639 24.6845C17.0171 24.5377 17.0806 24.3195 17.0306 24.1132Z" fill="#347E3A"/>
<path d="M17.2561 21.8999C17.1647 21.6328 16.9327 21.4389 16.6535 21.3978L13.4099 20.9057L11.9539 17.8027C11.7781 17.4251 11.3302 17.2624 10.9536 17.4371C10.7929 17.5124 10.6634 17.641 10.5881 17.8027L9.13202 20.9057L5.84822 21.3777C5.43748 21.445 5.1593 21.8316 5.22558 22.2423C5.24969 22.393 5.31998 22.5326 5.42644 22.643L7.79636 25.0732L7.21389 28.5378C7.1466 28.9485 7.42378 29.3362 7.83452 29.4035C8.00022 29.4306 8.17094 29.4014 8.31857 29.3211L11.2308 27.7144L14.1229 29.3111C14.4875 29.5109 14.9454 29.3763 15.1453 29.0118C15.2256 28.8642 15.2547 28.6934 15.2276 28.5277L14.6753 25.0933L17.0452 22.6631C17.2541 22.4692 17.3354 22.1741 17.2561 21.8999Z" fill="white"/>
<path d="M17.2564 21.8999C17.165 21.6327 16.933 21.4389 16.6538 21.3977L16.1517 21.3174L16.0814 21.4178L14.073 23.4865C13.851 23.7154 13.7496 24.0358 13.8018 24.3501L14.2437 27.2824C14.311 27.6932 14.0338 28.0808 13.6231 28.1481C13.4574 28.1752 13.2867 28.1461 13.139 28.0657L10.7289 26.7301C10.4186 26.5503 10.035 26.5503 9.72468 26.7301L7.31459 28.0657L7.21416 28.5377C7.14688 28.9485 7.42405 29.3361 7.8348 29.4034C8.0005 29.4305 8.17122 29.4014 8.31885 29.3211L11.2311 27.7144L14.1232 29.311C14.4877 29.5109 14.9457 29.3763 15.1455 29.0117C15.2259 28.8641 15.255 28.6934 15.2279 28.5277L14.6755 25.0933L17.0455 22.6631C17.2543 22.4691 17.3357 22.174 17.2564 21.8999Z" fill="#DDDFE1"/>
<path d="M29.8635 21.8999C29.7721 21.6328 29.5401 21.4389 29.2609 21.3978L26.0173 20.9057L24.5613 17.8027C24.3855 17.4251 23.9376 17.2624 23.561 17.4371C23.4004 17.5124 23.2708 17.641 23.1955 17.8027L21.7394 20.9057L18.4556 21.3777C18.0449 21.445 17.7667 21.8316 17.833 22.2423C17.8571 22.393 17.9274 22.5326 18.0339 22.643L20.4038 25.0732L19.8213 28.5378C19.754 28.9485 20.0312 29.3362 20.4419 29.4035C20.6076 29.4306 20.7784 29.4014 20.926 29.3211L23.8382 27.7144L26.7303 29.3111C27.0949 29.5109 27.5528 29.3763 27.7527 29.0118C27.833 28.8642 27.8621 28.6934 27.835 28.5277L27.2827 25.0933L29.6526 22.6631C29.8615 22.4692 29.9428 22.1741 29.8635 21.8999Z" fill="white"/>
<path d="M29.8638 21.8999C29.7724 21.6327 29.5404 21.4389 29.2612 21.3977L28.7591 21.3174L28.6888 21.4178L26.6804 23.4865C26.4585 23.7154 26.357 24.0358 26.4093 24.3501L26.8511 27.2824C26.9184 27.6932 26.6412 28.0808 26.2305 28.1481C26.0648 28.1752 25.8941 28.1461 25.7465 28.0657L23.3364 26.7301C23.026 26.5503 22.6424 26.5503 22.3321 26.7301L19.922 28.0657L19.8216 28.5377C19.7543 28.9485 20.0315 29.3361 20.4422 29.4034C20.6079 29.4305 20.7786 29.4014 20.9263 29.3211L23.8385 27.7144L26.7306 29.311C27.0952 29.5109 27.5531 29.3763 27.753 29.0117C27.8333 28.8641 27.8624 28.6934 27.8353 28.5277L27.283 25.0933L29.6529 22.6631C29.8618 22.4691 29.9431 22.174 29.8638 21.8999Z" fill="#DDDFE1"/>
<path d="M32.1059 0.880371H3.54111C1.78836 0.880371 0.367188 2.30144 0.367188 4.0543V38.0386C0.375123 39.6413 1.18926 41.1323 2.53336 42.0059L16.9586 51.4085C17.4847 51.7505 18.1622 51.7505 18.6883 51.4085L33.1136 42.0297C34.4577 41.156 35.2718 39.6651 35.2798 38.0624V4.0543C35.2799 2.30144 33.8587 0.880371 32.1059 0.880371ZM32.1059 7.67248C31.4243 7.05355 30.5785 6.64569 29.67 6.49819C29.5216 5.58566 29.1105 4.73671 28.4877 4.0543H32.1059V7.67248ZM7.1593 4.0543C6.53798 4.73512 6.12695 5.5809 5.97707 6.49026C5.06772 6.64023 4.22194 7.05127 3.54111 7.67248V4.0543H7.1593ZM17.8235 48.1791L15.1971 46.4731C16.2928 46.0169 17.2133 45.2211 17.8235 44.2038C18.4337 45.2211 19.3541 46.0169 20.4499 46.4731L17.8235 48.1791ZM32.1059 38.0385C32.1067 38.5765 31.8353 39.078 31.3838 39.3715L22.2827 45.3145C20.2102 45.1566 18.6106 43.4261 18.6169 41.3472C18.6169 40.9092 18.2614 40.5537 17.8234 40.5537C17.3854 40.5537 17.0299 40.9092 17.0299 41.3472C17.0363 43.4261 15.4367 45.1566 13.3641 45.3145L4.263 39.3715C3.8115 39.0779 3.54012 38.5764 3.54091 38.0385V11.1955C3.54091 9.4427 4.96198 8.02163 6.71474 8.02163C7.15275 8.02163 7.50824 7.66614 7.50824 7.22812C7.50824 5.47537 8.92931 4.0542 10.6822 4.0542H24.9646C26.7173 4.0542 28.1385 5.47527 28.1385 7.22812C28.1385 7.66614 28.494 8.02163 28.932 8.02163C30.6848 8.02163 32.1059 9.4427 32.1059 11.1955V38.0385Z" fill="#45914B"/>
<path d="M0.367188 4.05444V31.0324C1.24401 31.0324 1.9541 30.3222 1.9541 29.4454V4.05444C1.9541 3.17762 2.66429 2.46753 3.54101 2.46753H30.5189C31.3957 2.46753 32.1058 1.75734 32.1058 0.880615H3.54111C1.78756 0.880516 0.367188 2.30159 0.367188 4.05444Z" fill="#34B03F"/>
<path d="M33.1134 42.0297C34.4575 41.156 35.2716 39.6651 35.2796 38.0623V6.43457C34.4027 6.43457 33.6927 7.14476 33.6927 8.02148V38.2209C33.6927 39.0184 33.2935 39.7634 32.6295 40.2046L19.1404 49.1946C18.3167 49.7461 17.8224 50.6712 17.8232 51.6623C18.1303 51.6631 18.4303 51.575 18.6882 51.4084L33.1134 42.0297Z" fill="#34B03F"/>
</svg>
