<svg width="47" height="68" viewBox="0 0 47 68" fill="none" xmlns="http://www.w3.org/2000/svg">
<path d="M5.23061 51.5324C4.62479 51.1414 4.26066 50.4734 4.26172 49.757V4.49341H42.5898V49.757C42.5909 50.4735 42.2267 51.1415 41.6209 51.5324L23.4257 63.2631L5.23061 51.5324Z" fill="url(#paint0_linear)"/>
<path d="M23.6416 50.4844C24.2149 50.4844 24.6796 50.0197 24.6796 49.4464C24.6796 48.8731 24.2149 48.4083 23.6416 48.4083C23.0683 48.4083 22.6035 48.8731 22.6035 49.4464C22.6035 50.0197 23.0683 50.4844 23.6416 50.4844Z" fill="url(#paint1_linear)"/>
<path d="M4.77539 4.13612V34.238H6.33233C7.19183 34.238 7.88927 33.5404 7.88927 32.6811V22.1454C7.91003 21.3493 8.57334 20.7203 9.37043 20.7421C9.38912 20.7421 9.4078 20.7432 9.42545 20.7442C10.2849 20.7556 10.9917 20.0674 11.0031 19.208C11.0031 19.2008 11.0031 19.1945 11.0031 19.1873V11.402C11.0031 9.10913 12.8622 7.24999 15.1551 7.24999H34.877C36.5969 7.24999 37.991 5.85603 37.991 4.13599H4.77539V4.13612Z" fill="url(#paint2_linear)"/>
<path d="M11.1845 12.0784C11.7578 12.0784 12.2226 11.6137 12.2226 11.0404C12.2226 10.4671 11.7578 10.0023 11.1845 10.0023C10.6112 10.0023 10.1465 10.4671 10.1465 11.0404C10.1465 11.6137 10.6112 12.0784 11.1845 12.0784Z" fill="url(#paint3_linear)"/>
<path d="M36.0986 12.0784C36.6719 12.0784 37.1366 11.6137 37.1366 11.0404C37.1366 10.4671 36.6719 10.0023 36.0986 10.0023C35.5253 10.0023 35.0605 10.4671 35.0605 11.0404C35.0605 11.6137 35.5253 12.0784 36.0986 12.0784Z" fill="url(#paint4_linear)"/>
<path d="M39.3958 16.2776C39.3958 15.4147 40.1112 14.7142 40.9927 14.7142H42.5898V50.1514C42.5334 50.7944 42.1756 51.376 41.6209 51.7252L23.4258 63.2631C23.4205 60.9212 24.6215 58.7345 26.6198 57.4473C30.5964 54.9323 33.0004 50.6162 33.0078 45.9823V41.2921V41.2817C33.0142 40.4188 33.7338 39.7225 34.6154 39.7288H34.7538C35.5481 39.735 36.1954 39.1096 36.2018 38.3321V32.0784C36.1592 32.0816 36.1166 32.0816 36.074 32.0784L36.7342 27.6175C37.0259 27.36 37.406 27.2193 37.7989 27.2214H37.9479H37.9586C38.7527 27.2214 39.3958 26.5919 39.3958 25.8144V16.2776Z" fill="url(#paint5_linear)"/>
<path d="M39.4922 22.4005C39.3804 22.0923 39.0965 21.8686 38.7548 21.8211L34.7854 21.2532L33.0035 17.6721C32.7885 17.2364 32.2404 17.0486 31.7795 17.2503C31.5829 17.3372 31.4243 17.4855 31.3321 17.6721L29.5503 21.2532L25.5317 21.7979C25.0291 21.8755 24.6886 22.3217 24.7698 22.7958C24.7993 22.9696 24.8853 23.1307 25.0156 23.2582L27.9158 26.0627L27.2031 30.061C27.1208 30.535 27.46 30.9824 27.9626 31.06C28.1654 31.0913 28.3743 31.0577 28.555 30.965L32.1188 29.1108L35.6581 30.9534C36.1042 31.184 36.6646 31.0287 36.9092 30.608C37.0075 30.4376 37.0432 30.2406 37.01 30.0494L36.334 26.0859L39.2343 23.2814C39.4897 23.0577 39.5893 22.7169 39.4922 22.4005Z" fill="url(#paint6_linear)"/>
<path d="M22.9824 22.4005C22.8706 22.0923 22.5867 21.8686 22.245 21.8211L18.2756 21.2532L16.4938 17.6721C16.2787 17.2364 15.7306 17.0486 15.2697 17.2503C15.0731 17.3372 14.9146 17.4855 14.8224 17.6721L13.0405 21.2532L9.02195 21.7979C8.51931 21.8755 8.17888 22.3217 8.25999 22.7958C8.28949 22.9696 8.37552 23.1307 8.50579 23.2582L11.406 26.0627L10.6934 30.061C10.611 30.535 10.9502 30.9824 11.4529 31.06C11.6556 31.0913 11.8646 31.0577 12.0452 30.965L15.6091 29.1108L19.1483 30.9534C19.5945 31.184 20.1549 31.0287 20.3994 30.608C20.4978 30.4376 20.5334 30.2406 20.5002 30.0494L19.8243 26.0859L22.7245 23.2814C22.98 23.0577 23.0795 22.7169 22.9824 22.4005Z" fill="url(#paint7_linear)"/>
<path d="M23.4181 22.6157C23.3058 22.2942 23.0205 22.061 22.6772 22.0115L22.0597 21.9148L21.9732 22.0356L19.5035 24.5248C19.2306 24.8003 19.1058 25.1857 19.17 25.564L19.7134 29.0923C19.7962 29.5865 19.4553 30.053 18.9502 30.1339C18.7465 30.1666 18.5365 30.1315 18.355 30.0348L15.3912 28.4278C15.0096 28.2115 14.5379 28.2115 14.1563 28.4278L11.1925 30.0348L11.069 30.6028C10.9863 31.097 11.3271 31.5634 11.8322 31.6444C12.036 31.677 12.2459 31.642 12.4275 31.5453L16.0087 29.6121L19.5652 31.5332C20.0135 31.7737 20.5767 31.6118 20.8224 31.1731C20.9212 30.9955 20.957 30.7901 20.9237 30.5907L20.2445 26.4582L23.1588 23.534C23.4157 23.3008 23.5157 22.9455 23.4181 22.6157Z" fill="url(#paint8_linear)"/>
<path d="M39.3576 22.6157C39.2452 22.2942 38.9599 22.061 38.6166 22.0115L37.9991 21.9148L37.9127 22.0356L35.4429 24.5248C35.17 24.8003 35.0453 25.1857 35.1095 25.564L35.6529 29.0923C35.7356 29.5865 35.3948 30.053 34.8897 30.1339C34.6859 30.1666 34.476 30.1315 34.2944 30.0348L31.3307 28.4278C30.9491 28.2115 30.4773 28.2115 30.0957 28.4278L27.132 30.0348L27.0085 30.6028C26.9257 31.097 27.2666 31.5634 27.7717 31.6444C27.9754 31.677 28.1854 31.642 28.3669 31.5453L31.9482 29.6121L35.5047 31.5332C35.953 31.7737 36.5161 31.6118 36.7619 31.1731C36.8607 30.9955 36.8965 30.7901 36.8631 30.5907L36.1839 26.4582L39.0983 23.534C39.3551 23.3008 39.4552 22.9455 39.3576 22.6157Z" fill="url(#paint9_linear)"/>
<path d="M30.5021 36.9881C30.3881 36.6739 30.0988 36.4459 29.7506 36.3975L25.7048 35.8187L23.8887 32.1688C23.6695 31.7246 23.1108 31.5332 22.6411 31.7388C22.4407 31.8274 22.2791 31.9786 22.1851 32.1688L20.369 35.8187L16.2732 36.3738C15.7609 36.453 15.4139 36.9078 15.4966 37.3909C15.5266 37.5681 15.6143 37.7323 15.7471 37.8622L18.7031 40.7207L17.9767 44.7959C17.8928 45.279 18.2385 45.7349 18.7508 45.8141C18.9575 45.846 19.1704 45.8117 19.3546 45.7172L22.987 43.8274L26.5943 45.7054C27.049 45.9405 27.6202 45.7822 27.8695 45.3534C27.9697 45.1798 28.006 44.9789 27.9722 44.784L27.2832 40.7443L30.2392 37.8858C30.4996 37.6579 30.6011 37.3106 30.5021 36.9881Z" fill="url(#paint10_linear)"/>
<path d="M30.5041 36.7848C30.3917 36.4634 30.1064 36.2302 29.7631 36.1807L29.1456 36.084L29.0592 36.2048L26.5894 38.6939C26.3165 38.9695 26.1918 39.3549 26.256 39.7332L26.7994 43.2615C26.8821 43.7557 26.5413 44.2222 26.0362 44.3031C25.8324 44.3357 25.6224 44.3007 25.4409 44.204L22.4772 42.597C22.0956 42.3807 21.6238 42.3807 21.2422 42.597L18.2785 44.204L18.155 44.772C18.0722 45.2662 18.4131 45.7326 18.9182 45.8136C19.1219 45.8462 19.3319 45.8112 19.5134 45.7145L23.0946 43.7812L26.6512 45.7024C27.0995 45.9429 27.6626 45.781 27.9084 45.3423C28.0071 45.1647 28.043 44.9593 28.0096 44.7599L27.3304 40.6274L30.2447 37.7032C30.5016 37.47 30.6016 37.1147 30.5041 36.7848Z" fill="url(#paint11_linear)"/>
<path d="M42.3265 0.6604H4.95869C2.66578 0.6604 0.806641 2.51941 0.806641 4.81245V49.2699C0.817021 51.3666 1.88206 53.3171 3.64038 54.4598L22.5111 66.7602C23.1994 67.2076 24.0857 67.2076 24.774 66.7602L43.6447 54.491C45.403 53.3481 46.4681 51.3977 46.4785 49.301V4.81245C46.4786 2.51941 44.6194 0.6604 42.3265 0.6604ZM42.3265 9.54568C41.4348 8.73601 40.3284 8.20245 39.1399 8.0095C38.9457 6.81575 38.408 5.70517 37.5933 4.81245H42.3265V9.54568ZM9.69192 4.81245C8.87913 5.7031 8.34143 6.80952 8.14537 7.99912C6.95576 8.19531 5.84934 8.73302 4.95869 9.54568V4.81245H9.69192ZM23.6426 62.5355L20.2068 60.3038C21.6402 59.7069 22.8444 58.6659 23.6426 57.3351C24.4409 58.6659 25.6449 59.7069 27.0784 60.3038L23.6426 62.5355ZM42.3265 49.2697C42.3276 49.9735 41.9726 50.6296 41.3819 51.0135L29.476 58.7881C26.7648 58.5815 24.6722 56.3177 24.6805 53.5981C24.6805 53.0251 24.2155 52.5601 23.6425 52.5601C23.0695 52.5601 22.6044 53.0251 22.6044 53.5981C22.6127 56.3177 20.5202 58.5815 17.8089 58.7881L5.90306 51.0135C5.31241 50.6295 4.9574 49.9734 4.95843 49.2697V14.1543C4.95843 11.8614 6.81744 10.0024 9.11036 10.0024C9.68336 10.0024 10.1484 9.53738 10.1484 8.96438C10.1484 6.67146 12.0074 4.81232 14.3005 4.81232H32.9844C35.2773 4.81232 37.1364 6.67133 37.1364 8.96438C37.1364 9.53738 37.6015 10.0024 38.1745 10.0024C40.4674 10.0024 42.3265 11.8614 42.3265 14.1543V49.2697Z" fill="url(#paint12_linear)"/>
<path d="M43.6448 54.491C45.4031 53.3482 46.4682 51.3978 46.4785 49.3011V7.92639C45.3315 7.92639 44.4026 8.85544 44.4026 10.0024V49.5086C44.4026 50.5518 43.8804 51.5264 43.0117 52.1035L25.3656 63.8641C24.2881 64.5855 23.6415 65.7958 23.6426 67.0923C24.0443 67.0933 24.4367 66.9781 24.774 66.7601L43.6448 54.491Z" fill="url(#paint13_linear)"/>
<path d="M0.427734 4.85525V40.512C1.55316 40.512 2.46457 39.5733 2.46457 38.4146V4.85525C2.46457 3.69635 3.37611 2.75782 4.5014 2.75782H39.1281C40.2535 2.75782 41.1649 1.81917 41.1649 0.6604H4.50153C2.25081 0.660269 0.427734 2.5385 0.427734 4.85525Z" fill="url(#paint14_linear)"/>
<defs>
<linearGradient id="paint0_linear" x1="42.3924" y1="60.4213" x2="-6.52331" y2="40.7098" gradientUnits="userSpaceOnUse">
<stop stop-color="#B8B8B8"/>
<stop offset="1" stop-color="#7C7C7C"/>
</linearGradient>
<linearGradient id="paint1_linear" x1="24.5002" y1="50.5518" x2="22.7683" y2="48.7417" gradientUnits="userSpaceOnUse">
<stop stop-color="#AEAEAE"/>
<stop offset="1" stop-color="white"/>
</linearGradient>
<linearGradient id="paint2_linear" x1="35.5235" y1="35.7809" x2="30.0056" y2="10.6245" gradientUnits="userSpaceOnUse">
<stop stop-color="#5F5F5F"/>
<stop offset="1" stop-color="#D5D5D5"/>
</linearGradient>
<linearGradient id="paint3_linear" x1="12.0432" y1="12.1458" x2="10.3113" y2="10.3357" gradientUnits="userSpaceOnUse">
<stop stop-color="#AEAEAE"/>
<stop offset="1" stop-color="white"/>
</linearGradient>
<linearGradient id="paint4_linear" x1="36.9572" y1="12.1458" x2="35.2254" y2="10.3357" gradientUnits="userSpaceOnUse">
<stop stop-color="#AEAEAE"/>
<stop offset="1" stop-color="white"/>
</linearGradient>
<linearGradient id="paint5_linear" x1="41.1661" y1="65.7515" x2="22.2164" y2="34.8458" gradientUnits="userSpaceOnUse">
<stop stop-color="#5F5F5F"/>
<stop offset="1" stop-color="#D5D5D5"/>
</linearGradient>
<linearGradient id="paint6_linear" x1="38.2523" y1="31.5225" x2="26.7074" y2="18.7019" gradientUnits="userSpaceOnUse">
<stop stop-color="#AEAEAE"/>
<stop offset="1" stop-color="white"/>
</linearGradient>
<linearGradient id="paint7_linear" x1="21.7426" y1="31.5225" x2="10.1976" y2="18.7019" gradientUnits="userSpaceOnUse">
<stop stop-color="#AEAEAE"/>
<stop offset="1" stop-color="white"/>
</linearGradient>
<linearGradient id="paint8_linear" x1="22.5339" y1="32.1556" x2="20.9678" y2="23.9207" gradientUnits="userSpaceOnUse">
<stop stop-color="#5F5F5F"/>
<stop offset="1" stop-color="#D5D5D5"/>
</linearGradient>
<linearGradient id="paint9_linear" x1="38.4733" y1="32.1556" x2="36.9073" y2="23.9207" gradientUnits="userSpaceOnUse">
<stop stop-color="#5F5F5F"/>
<stop offset="1" stop-color="#D5D5D5"/>
</linearGradient>
<linearGradient id="paint10_linear" x1="29.2384" y1="46.2855" x2="17.4715" y2="33.2183" gradientUnits="userSpaceOnUse">
<stop stop-color="#AEAEAE"/>
<stop offset="1" stop-color="white"/>
</linearGradient>
<linearGradient id="paint11_linear" x1="29.6198" y1="46.3248" x2="28.0538" y2="38.0899" gradientUnits="userSpaceOnUse">
<stop stop-color="#5F5F5F"/>
<stop offset="1" stop-color="#D5D5D5"/>
</linearGradient>
<linearGradient id="paint12_linear" x1="46.2432" y1="63.8833" x2="-11.1536" y2="39.5025" gradientUnits="userSpaceOnUse">
<stop stop-color="white"/>
<stop offset="1" stop-color="#6F6F6F"/>
</linearGradient>
<linearGradient id="paint13_linear" x1="44.5051" y1="69.0122" x2="19.9356" y2="37.6722" gradientUnits="userSpaceOnUse">
<stop stop-color="#DEDEDE"/>
<stop offset="1" stop-color="#696969"/>
</linearGradient>
<linearGradient id="paint14_linear" x1="31.3311" y1="37.4699" x2="5.8115" y2="-9.48854" gradientUnits="userSpaceOnUse">
<stop stop-color="#AEAEAE"/>
<stop offset="1" stop-color="white"/>
</linearGradient>
</defs>
</svg>
