<svg width="1792" height="1792" xmlns="http://www.w3.org/2000/svg">

 <g>
  <title>background</title>
  <rect fill="none" id="canvas_background" height="402" width="582" y="-1" x="-1"/>
 </g>
 <g>
  <title>Layer 1</title>
  <path fill="#5a5a5a" id="svg_1" d="m1024,1376l0,-192q0,-14 -9,-23t-23,-9l-192,0q-14,0 -23,9t-9,23l0,192q0,14 9,23t23,9l192,0q14,0 23,-9t9,-23zm256,-672q0,-88 -55.5,-163t-138.5,-116t-170,-41q-243,0 -371,213q-15,24 8,42l132,100q7,6 19,6q16,0 25,-12q53,-68 86,-92q34,-24 86,-24q48,0 85.5,26t37.5,59q0,38 -20,61t-68,45q-63,28 -115.5,86.5t-52.5,125.5l0,36q0,14 9,23t23,9l192,0q14,0 23,-9t9,-23q0,-19 21.5,-49.5t54.5,-49.5q32,-18 49,-28.5t46,-35t44.5,-48t28,-60.5t12.5,-81zm384,192q0,209 -103,385.5t-279.5,279.5t-385.5,103t-385.5,-103t-279.5,-279.5t-103,-385.5t103,-385.5t279.5,-279.5t385.5,-103t385.5,103t279.5,279.5t103,385.5z"/>
  <path d="m422.153778,619.01532c0,0 0.552826,6.765808 3.446167,20.676941c4.268524,20.522949 3.446167,34.461548 3.446167,51.692322c0,10.33844 0,10.33844 0,13.784607l0,10.33844" id="svg_2" fill-opacity="null" stroke-opacity="null" stroke-width="null" stroke="null" fill="none"/>
  <polyline stroke-linecap="round" id="svg_3" points="511.75380105283307,970.5230593781762 511.75380105283307,970.5230593781762 " fill-opacity="null" stroke-opacity="null" stroke-width="null" stroke="null" fill="none"/>
  <path d="m22.399897,108.984497c24.123079,13.784615 68.230108,45.831314 144.738485,96.492325c95.64357,63.331619 195.644974,123.828201 344.615433,234.338486c143.949249,106.7854 288.189911,209.718811 458.338531,344.615417c132.100403,104.731384 230.756042,188.986816 348.061584,289.47699c85.20813,72.993774 161.969238,134.400024 206.769165,172.307739l13.784668,6.892212" id="svg_4" fill-opacity="null" stroke-opacity="null" stroke-width="null" stroke="null" fill="none"/>
  <polyline stroke-linecap="round" id="svg_5" points="298.0922375127043,91.75372546313065 298.0922375127043,91.75372546313065 301.53839176335146,91.75372546313065 " fill-opacity="null" stroke-opacity="null" stroke-width="null" stroke="null" fill="none"/>
 </g>
</svg>