<svg width="19" height="19" viewBox="0 0 19 19" fill="none" xmlns="http://www.w3.org/2000/svg">
<path d="M16.7587 10.431C16.7977 10.127 16.827 9.823 16.827 9.5C16.827 9.177 16.7977 8.873 16.7587 8.569L18.8194 7.0015C19.005 6.859 19.0538 6.6025 18.9366 6.3935L16.9833 3.1065C16.8954 2.9545 16.7294 2.869 16.5536 2.869C16.495 2.869 16.4364 2.8785 16.3875 2.8975L13.9557 3.8475C13.4478 3.4675 12.9009 3.154 12.3051 2.9165L11.934 0.399C11.9047 0.171 11.6996 0 11.4555 0H7.54886C7.30469 0 7.0996 0.171 7.0703 0.399L6.69917 2.9165C6.10341 3.154 5.55649 3.477 5.04863 3.8475L2.61677 2.8975C2.55817 2.8785 2.49957 2.869 2.44097 2.869C2.27494 2.869 2.10891 2.9545 2.02101 3.1065L0.0677127 6.3935C-0.0592519 6.6025 -0.000652698 6.859 0.184911 7.0015L2.24564 8.569C2.20658 8.873 2.17728 9.1865 2.17728 9.5C2.17728 9.8135 2.20658 10.127 2.24564 10.431L0.184911 11.9985C-0.000652698 12.141 -0.0494854 12.3975 0.0677127 12.6065L2.02101 15.8935C2.10891 16.0455 2.27494 16.131 2.45074 16.131C2.50934 16.131 2.56794 16.1215 2.61677 16.1025L5.04863 15.1525C5.55649 15.5325 6.10341 15.846 6.69917 16.0835L7.0703 18.601C7.0996 18.829 7.30469 19 7.54886 19H11.4555C11.6996 19 11.9047 18.829 11.934 18.601L12.3051 16.0835C12.9009 15.846 13.4478 15.523 13.9557 15.1525L16.3875 16.1025C16.4461 16.1215 16.5047 16.131 16.5633 16.131C16.7294 16.131 16.8954 16.0455 16.9833 15.8935L18.9366 12.6065C19.0538 12.3975 19.005 12.141 18.8194 11.9985L16.7587 10.431ZM14.8249 8.8065C14.864 9.101 14.8737 9.3005 14.8737 9.5C14.8737 9.6995 14.8542 9.9085 14.8249 10.1935L14.6882 11.267L15.5574 11.932L16.6122 12.73L15.9285 13.8795L14.6882 13.395L13.6725 12.996L12.7935 13.642C12.3735 13.946 11.9731 14.174 11.5727 14.3355L10.5374 14.744L10.3811 15.8175L10.1858 17.1H8.8185L8.63294 15.8175L8.47667 14.744L7.44142 14.3355C7.02146 14.1645 6.6308 13.946 6.24014 13.661L5.35139 12.996L4.31614 13.4045L3.0758 13.889L2.39214 12.7395L3.44692 11.9415L4.31614 11.2765L4.17941 10.203C4.15011 9.9085 4.13058 9.69 4.13058 9.5C4.13058 9.31 4.15011 9.0915 4.17941 8.8065L4.31614 7.733L3.44692 7.068L2.39214 6.27L3.0758 5.1205L4.31614 5.605L5.33186 6.004L6.21084 5.358C6.6308 5.054 7.03123 4.826 7.43166 4.6645L8.46691 4.256L8.62317 3.1825L8.8185 1.9H10.176L10.3616 3.1825L10.5179 4.256L11.5531 4.6645C11.9731 4.8355 12.3637 5.054 12.7544 5.339L13.6432 6.004L14.6784 5.5955L15.9188 5.111L16.6024 6.2605L15.5574 7.068L14.6882 7.733L14.8249 8.8065ZM9.50216 5.7C7.34376 5.7 5.59555 7.4005 5.59555 9.5C5.59555 11.5995 7.34376 13.3 9.50216 13.3C11.6606 13.3 13.4088 11.5995 13.4088 9.5C13.4088 7.4005 11.6606 5.7 9.50216 5.7ZM9.50216 11.4C8.42784 11.4 7.54886 10.545 7.54886 9.5C7.54886 8.455 8.42784 7.6 9.50216 7.6C10.5765 7.6 11.4555 8.455 11.4555 9.5C11.4555 10.545 10.5765 11.4 9.50216 11.4Z" fill="white"/>
</svg>
