<svg width="47" height="68" viewBox="0 0 47 68" fill="none" xmlns="http://www.w3.org/2000/svg">
<path d="M5.54589 51.7176C4.9481 51.3289 4.5888 50.6649 4.58985 49.9528V4.95789H42.4096V49.9528C42.4106 50.6651 42.0513 51.3291 41.4535 51.7176L23.4996 63.3787L5.54589 51.7176Z" fill="url(#paint0_linear)"/>
<path d="M40.8318 14.4128C39.9619 14.4128 39.2561 15.1188 39.2561 15.9886V25.6012C39.2561 26.3849 38.6215 27.0193 37.8379 27.0193C37.8347 27.0193 37.8305 27.0193 37.8274 27.0193H37.6803C36.8157 27.013 36.1108 27.7096 36.1045 28.5741C36.1045 28.5772 36.1045 28.5814 36.1045 28.5846V38.2076C36.1045 38.9914 35.47 39.6258 34.6864 39.6258C34.6832 39.6258 34.679 39.6258 34.6759 39.6258H34.5393C33.6694 39.6195 32.9593 40.3213 32.953 41.1911C32.953 41.1942 32.953 41.1984 32.953 41.2016V45.929C32.9457 50.5997 30.5736 54.9501 26.6497 57.485C24.6779 58.7825 23.4928 60.9865 23.4981 63.3471L41.4519 51.7175C41.9993 51.3656 42.3523 50.7793 42.408 50.1312V14.4128H40.8318Z" fill="url(#paint1_linear)"/>
<path d="M23.4959 51.182C24.0761 51.182 24.5465 50.7116 24.5465 50.1314C24.5465 49.5512 24.0761 49.0808 23.4959 49.0808C22.9157 49.0808 22.4453 49.5512 22.4453 50.1314C22.4453 50.7116 22.9157 51.182 23.4959 51.182Z" fill="#CACACA"/>
<path d="M4.58984 4.95802V35.4238H6.16561C7.0355 35.4238 7.74137 34.7178 7.74137 33.8481V23.1851C7.76238 22.3792 8.43371 21.7427 9.24043 21.7648C9.25935 21.7648 9.27826 21.7658 9.29612 21.7669C10.166 21.7784 10.8813 21.0819 10.8929 20.2121C10.8929 20.2048 10.8929 20.1985 10.8929 20.1911V12.3118C10.8929 9.99116 12.7744 8.10954 15.095 8.10954H35.0554C36.7961 8.10954 38.2071 6.69872 38.2071 4.95789H4.58984V4.95802Z" fill="url(#paint2_linear)"/>
<path d="M10.8885 12.312C11.4687 12.312 11.9391 11.8416 11.9391 11.2614C11.9391 10.6812 11.4687 10.2108 10.8885 10.2108C10.3083 10.2108 9.83789 10.6812 9.83789 11.2614C9.83789 11.8416 10.3083 12.312 10.8885 12.312Z" fill="#CACACA"/>
<path d="M36.1014 12.3116C36.6816 12.3116 37.152 11.8413 37.152 11.261C37.152 10.6808 36.6816 10.2104 36.1014 10.2104C35.5211 10.2104 35.0508 10.6808 35.0508 11.261C35.0508 11.8413 35.5211 12.3116 36.1014 12.3116Z" fill="#CACACA"/>
<path d="M30.2518 28.48C30.1403 28.1493 29.8532 27.9087 29.5086 27.8576L25.5048 27.2445L23.7026 23.4079C23.4843 22.9434 22.9306 22.7437 22.4672 22.962C22.2712 23.054 22.1142 23.2119 22.0213 23.4079L20.2191 27.2445L16.2153 27.8576C15.7081 27.9356 15.3606 28.4104 15.4387 28.9176C15.4684 29.1099 15.5585 29.2892 15.6951 29.4276L18.6213 32.4282L17.9339 36.6642C17.8716 37.1733 18.2339 37.6369 18.743 37.6991C18.9353 37.7224 19.1295 37.6852 19.2995 37.5932L22.8668 35.6517L26.434 37.5932C26.8846 37.8385 27.4485 37.6713 27.6936 37.2207C27.7856 37.0507 27.8228 36.8565 27.7996 36.6642L27.1121 32.4189L30.0383 29.4183C30.2778 29.1693 30.3605 28.8079 30.2518 28.48Z" fill="url(#paint3_linear)"/>
<path d="M30.2488 28.732C30.1373 28.4013 29.8503 28.1606 29.5056 28.1096L28.6602 27.9795C28.6221 28.0473 28.5747 28.1096 28.5209 28.1653L26.3565 30.4134C25.8771 30.9039 25.6635 31.5951 25.7805 32.2713L26.3008 35.4483C26.363 35.9574 26.0007 36.421 25.4916 36.4833C25.2993 36.5065 25.1051 36.4693 24.9351 36.3773L22.1482 34.8539C21.6364 34.5715 21.0158 34.5715 20.504 34.8539L18.0051 36.2287L17.9308 36.9162C17.8685 37.4253 18.2309 37.8888 18.7399 37.9511C18.9323 37.9743 19.1264 37.9371 19.2964 37.8452L22.8637 35.9037L26.431 37.8452C26.8815 38.0904 27.4454 37.9232 27.6906 37.4726C27.7825 37.3026 27.8197 37.1085 27.7965 36.9162L27.109 32.6708L30.0353 29.6703C30.2748 29.4212 30.3575 29.0598 30.2488 28.732Z" fill="url(#paint4_linear)"/>
<path d="M42.4086 0.755493H4.58897C2.26833 0.755493 0.386719 2.63698 0.386719 4.95774V49.9526C0.397225 52.0747 1.47513 54.0488 3.25471 55.2053L22.3536 67.6544C23.0502 68.1072 23.9472 68.1072 24.6438 67.6544L43.7427 55.2369C45.5223 54.0802 46.6002 52.1062 46.6107 49.9841V4.95774C46.6108 2.63698 44.7292 0.755493 42.4086 0.755493ZM42.4086 9.74819C41.5061 8.92873 40.3863 8.38872 39.1834 8.19344C38.9869 6.98526 38.4427 5.86125 37.6181 4.95774H42.4086V9.74819ZM9.37942 4.95774C8.5568 5.85915 8.01259 6.97896 7.81416 8.18294C6.61018 8.3815 5.49038 8.92571 4.58897 9.74819V4.95774H9.37942ZM23.4988 63.3786L20.0214 61.1199C21.4722 60.5158 22.6909 59.4622 23.4988 58.1154C24.3067 59.4622 25.5252 60.5158 26.9761 61.1199L23.4988 63.3786ZM42.4086 49.9525C42.4096 50.6648 42.0503 51.3288 41.4525 51.7174L29.4027 59.5859C26.6587 59.3769 24.5408 57.0856 24.5492 54.3332C24.5492 53.7533 24.0786 53.2826 23.4986 53.2826C22.9187 53.2826 22.448 53.7533 22.448 54.3332C22.4564 57.0856 20.3386 59.3769 17.5945 59.5859L5.54475 51.7174C4.94696 51.3287 4.58765 50.6647 4.5887 49.9525V14.4126C4.5887 12.0919 6.47019 10.2105 8.79082 10.2105C9.37075 10.2105 9.84142 9.73979 9.84142 9.15986C9.84142 6.83923 11.7229 4.95761 14.0437 4.95761H32.9535C35.2741 4.95761 37.1557 6.8391 37.1557 9.15986C37.1557 9.73979 37.6264 10.2105 38.2063 10.2105C40.5269 10.2105 42.4086 12.0919 42.4086 14.4126V49.9525Z" fill="url(#paint5_linear)"/>
<path d="M0.386719 4.95773V40.6763C1.54763 40.6763 2.48778 39.736 2.48778 38.5752V4.95773C2.48778 3.79683 3.42806 2.85667 4.58884 2.85667H40.3074C41.4683 2.85667 42.4084 1.91639 42.4084 0.755615H4.58897C2.26728 0.755484 0.386719 2.63697 0.386719 4.95773Z" fill="url(#paint6_linear)"/>
<path d="M43.7421 55.2371C45.5217 54.0804 46.5996 52.1065 46.6101 49.9844V8.1095C45.4492 8.1095 44.509 9.04978 44.509 10.2106V50.1944C44.509 51.2502 43.9806 52.2366 43.1014 52.8207L25.2419 64.7234C24.1514 65.4536 23.497 66.6785 23.498 67.9907C23.9046 67.9917 24.3018 67.8751 24.6432 67.6545L43.7421 55.2371Z" fill="url(#paint7_linear)"/>
<defs>
<linearGradient id="paint0_linear" x1="42.2148" y1="60.5538" x2="-6.15138" y2="41.2073" gradientUnits="userSpaceOnUse">
<stop stop-color="#DFDFDF"/>
<stop offset="1" stop-color="white"/>
</linearGradient>
<linearGradient id="paint1_linear" x1="48.081" y1="67.2103" x2="14.4406" y2="57.3351" gradientUnits="userSpaceOnUse">
<stop stop-color="#AEAEAE"/>
<stop offset="1" stop-color="white"/>
</linearGradient>
<linearGradient id="paint2_linear" x1="39.6309" y1="27.3013" x2="10.7032" y2="-7.95113" gradientUnits="userSpaceOnUse">
<stop stop-color="#AEAEAE"/>
<stop offset="1" stop-color="white"/>
</linearGradient>
<linearGradient id="paint3_linear" x1="8.42954" y1="26.1182" x2="18.9971" y2="43.615" gradientUnits="userSpaceOnUse">
<stop stop-color="#C7C7C7"/>
<stop offset="1" stop-color="white"/>
</linearGradient>
<linearGradient id="paint4_linear" x1="30.2322" y1="37.4757" x2="18.6664" y2="28.6152" gradientUnits="userSpaceOnUse">
<stop stop-color="#AEAEAE"/>
<stop offset="1" stop-color="white"/>
</linearGradient>
<linearGradient id="paint5_linear" x1="46.3726" y1="64.7427" x2="-11.7181" y2="40.0672" gradientUnits="userSpaceOnUse">
<stop stop-color="#AEAEAE"/>
<stop offset="1" stop-color="white"/>
</linearGradient>
<linearGradient id="paint6_linear" x1="32.2646" y1="37.6289" x2="7.11265" y2="-10.0296" gradientUnits="userSpaceOnUse">
<stop stop-color="#AEAEAE"/>
<stop offset="1" stop-color="white"/>
</linearGradient>
<linearGradient id="paint7_linear" x1="44.6128" y1="69.9338" x2="9.91755" y2="55.9377" gradientUnits="userSpaceOnUse">
<stop stop-color="#AEAEAE"/>
<stop offset="1" stop-color="white"/>
</linearGradient>
</defs>
</svg>
