<svg width="11" height="11" viewBox="0 0 11 11" fill="none" xmlns="http://www.w3.org/2000/svg">
<path d="M10.4153 3.68161L7.30488 3.39931L6.09029 0.408321C5.87179 -0.136107 5.12633 -0.136107 4.90783 0.408321L3.69324 3.40603L0.589275 3.68161C0.0237504 3.72866 -0.207601 4.468 0.222969 4.85784L2.58147 6.99522L1.87456 10.1677C1.74603 10.7457 2.34369 11.2028 2.8321 10.8936L5.49906 9.21326L8.16602 10.9003C8.65443 11.2095 9.25209 10.7524 9.12356 10.1744L8.41665 6.99522L10.7751 4.85784C11.2057 4.468 10.9808 3.72866 10.4153 3.68161ZM5.49906 7.95637L3.08273 9.48211L3.72537 6.60539L1.5918 4.66964L4.40657 4.41423L5.49906 1.70554L6.59798 4.42095L9.41275 4.67636L7.27918 6.61211L7.92182 9.48884L5.49906 7.95637Z" fill="#5A5A5A"/>
</svg>
