<svg width="60" height="68" viewBox="0 0 60 68" fill="none" xmlns="http://www.w3.org/2000/svg">
<circle cx="28.5" cy="39.5" r="26.5" fill="white" fill-opacity="0.42"/>
<path d="M30.5 2.5C30.5 1.67157 29.8284 1 29 1C28.1716 1 27.5 1.67157 27.5 2.5H30.5ZM45.5 10.5C45.5 9.67157 44.8284 9 44 9C43.1716 9 42.5 9.67157 42.5 10.5H45.5ZM34.1809 14.6873L33.8293 16.1455L34.1809 14.6873ZM27.5 2.5V9.263H30.5V2.5H27.5ZM33.8293 16.1455C34.8726 16.397 35.9396 16.7522 36.9708 17.1557L38.0639 14.3619C36.9413 13.9227 35.7409 13.5204 34.5324 13.2291L33.8293 16.1455ZM45.5 11.7427V10.5H42.5V11.7427H45.5ZM36.9708 17.1557C38.9081 17.9137 41.0145 17.6202 42.6316 16.6481C44.2598 15.6694 45.5 13.9282 45.5 11.7427H42.5C42.5 12.7074 41.9657 13.5481 41.086 14.0769C40.1952 14.6123 39.0603 14.7518 38.0639 14.3619L36.9708 17.1557ZM27.5 9.263C27.5 11.0986 28.4094 12.6648 29.5825 13.8071C30.7557 14.9495 32.2931 15.7752 33.8293 16.1455L34.5324 13.2291C33.5046 12.9813 32.4516 12.4135 31.6754 11.6577C30.8991 10.9018 30.5 10.0649 30.5 9.263H27.5Z" fill="white"/>
<circle cx="11" cy="4" r="2" stroke="white" stroke-width="3" stroke-linecap="round" stroke-linejoin="round"/>
<circle cx="56" cy="11" r="2" stroke="white" stroke-width="3" stroke-linecap="round" stroke-linejoin="round"/>
<path d="M33.2519 32.3321C33.7115 33.0213 34.6428 33.2076 35.3321 32.7481C36.0213 32.2885 36.2076 31.3572 35.7481 30.6679L33.2519 32.3321ZM29.5 38L29.2534 39.4796C29.2803 39.4841 29.3073 39.4878 29.3344 39.4908L29.5 38ZM30.5 47.5L30.1746 46.0357L30.5 47.5ZM24.0607 43.9393C23.4749 43.3536 22.5251 43.3536 21.9393 43.9393C21.3536 44.5251 21.3536 45.4749 21.9393 46.0607L24.0607 43.9393ZM28.5 47.6226L28.6634 46.1315L28.5 47.6226ZM27 50.5C27 51.3284 27.6716 52 28.5 52C29.3284 52 30 51.3284 30 50.5H27ZM30 25.5C30 24.6716 29.3284 24 28.5 24C27.6716 24 27 24.6716 27 25.5H30ZM33.8001 40.7571L32.342 41.1088L33.8001 40.7571ZM33.9977 42.27L32.4978 42.2491L33.9977 42.27ZM35.7481 30.6679C35.1972 29.8416 34.4512 28.8837 33.2544 28.1559C32.0488 27.4227 30.5159 27 28.5 27V30C30.0841 30 31.0512 30.3273 31.6956 30.7191C32.3488 31.1163 32.8028 31.6584 33.2519 32.3321L35.7481 30.6679ZM28.5 27C26.2814 27 24.7149 27.8454 23.7344 29.0559C22.8054 30.2028 22.5 31.5546 22.5 32.5H25.5C25.5 32.1121 25.6446 31.4639 26.0656 30.9441C26.4351 30.4879 27.1186 30 28.5 30V27ZM22.5 32.5C22.5 33.0443 22.3229 34.6949 23.2071 36.198C24.1504 37.8016 26.0365 38.9434 29.2534 39.4796L29.7466 36.5204C26.9635 36.0566 26.0996 35.1984 25.7929 34.677C25.4271 34.0551 25.5 33.4557 25.5 32.5H22.5ZM29.3344 39.4908C30.9623 39.6717 31.6367 40.0434 31.9158 40.281C32.1511 40.4812 32.2415 40.6925 32.342 41.1088L35.2583 40.4054C35.1093 39.7875 34.825 38.8175 33.8602 37.9964C32.9393 37.2126 31.5884 36.7228 29.6656 36.5092L29.3344 39.4908ZM32.4978 42.2491C32.4845 43.205 32.397 44.0468 32.0777 44.7009C31.8081 45.2531 31.3237 45.7804 30.1746 46.0357L30.8254 48.9643C32.8419 48.5162 34.0926 47.4121 34.7736 46.0169C35.4049 44.7238 35.4834 43.3023 35.4975 42.291L32.4978 42.2491ZM30.1746 46.0357C29.6087 46.1615 29.1066 46.1801 28.6634 46.1315L28.3366 49.1137C29.1145 49.1989 29.9469 49.1595 30.8254 48.9643L30.1746 46.0357ZM28.6634 46.1315C26.6432 45.9101 24.8773 44.7559 24.0607 43.9393L21.9393 46.0607C23.1227 47.2441 25.4908 48.8018 28.3366 49.1137L28.6634 46.1315ZM27 47.6226V50.5H30V47.6226H27ZM30 28.5V25.5H27V28.5H30ZM32.342 41.1088C32.4463 41.5415 32.5025 41.9153 32.4978 42.2491L35.4975 42.291C35.5071 41.6071 35.3926 40.962 35.2583 40.4054L32.342 41.1088Z" fill="white"/>
<path d="M2 38.7434H3.5H2ZM13.8125 11C13.8125 10.1716 13.1409 9.5 12.3125 9.5C11.4841 9.5 10.8125 10.1716 10.8125 11H13.8125ZM58.5 18.3009C58.5 17.4725 57.8284 16.8009 57 16.8009C56.1716 16.8009 55.5 17.4725 55.5 18.3009H58.5ZM10.7181 20.5899L9.71273 19.4767L10.7181 20.5899ZM55.5 38.7434C55.5 52.9558 43.872 64.5 29.5 64.5V67.5C45.5037 67.5 58.5 54.6378 58.5 38.7434H55.5ZM29.5 64.5C15.128 64.5 3.5 52.9558 3.5 38.7434H0.5C0.5 54.6378 13.4963 67.5 29.5 67.5V64.5ZM3.5 38.7434C3.5 30.2451 8.9298 24.2261 11.7234 21.7032L9.71273 19.4767C6.71697 22.1822 0.5 28.9539 0.5 38.7434H3.5ZM13.8125 17.2052V11H10.8125V17.2052H13.8125ZM58.5 38.7434V18.3009H55.5V38.7434H58.5ZM11.7234 21.7032C12.947 20.5982 13.8125 18.9955 13.8125 17.2052H10.8125C10.8125 18.0104 10.4154 18.8422 9.71273 19.4767L11.7234 21.7032Z" fill="white"/>
</svg>
