<svg width="77" height="29" viewBox="0 0 77 29" fill="none" xmlns="http://www.w3.org/2000/svg">
<path d="M76.5 17.5005C76.7761 17.5005 77 17.7243 77 18.0005C77 18.2766 76.7761 18.5005 76.5 18.5005V17.5005ZM39.5 22.5004L39.1331 22.8401L39.5 22.5004ZM1 1.5C0.723854 1.5 0.5 1.27614 0.5 0.999998C0.5 0.723856 0.723862 0.499999 1 0.5V1.5ZM74.0728 18.7218C73.8008 18.7698 73.5414 18.5883 73.4934 18.3164C73.4454 18.0444 73.6269 17.7851 73.8989 17.7371L74.0728 18.7218ZM68.9716 19.2559C69.2263 19.1492 69.5193 19.2691 69.626 19.5238C69.7327 19.7785 69.6127 20.0715 69.358 20.1782L68.9716 19.2559ZM64.8434 22.356C64.599 22.4844 64.2967 22.3903 64.1683 22.1459C64.0398 21.9014 64.1339 21.5991 64.3784 21.4707L64.8434 22.356ZM59.911 23.8271C60.157 23.7018 60.4581 23.7996 60.5835 24.0457C60.7088 24.2917 60.611 24.5928 60.365 24.7182L59.911 23.8271ZM55.6993 26.8111C55.44 26.9062 55.1528 26.7731 55.0577 26.5138C54.9627 26.2545 55.0958 25.9673 55.3551 25.8723L55.6993 26.8111ZM50.5807 26.9853C50.8561 26.9646 51.0961 27.1711 51.1167 27.4464C51.1374 27.7218 50.931 27.9618 50.6556 27.9825L50.5807 26.9853ZM45.4766 27.3012C45.2168 27.2075 45.0822 26.921 45.1759 26.6612C45.2696 26.4015 45.5561 26.2668 45.8159 26.3605L45.4766 27.3012ZM41.6544 23.88C41.8652 24.0583 41.8915 24.3738 41.7131 24.5846C41.5348 24.7955 41.2193 24.8218 41.0085 24.6434L41.6544 23.88ZM37.5567 21.1101C37.3723 20.9046 37.3894 20.5884 37.5949 20.404C37.8005 20.2196 38.1166 20.2367 38.301 20.4422L37.5567 21.1101ZM35.2465 16.9543C35.4265 17.1637 35.4026 17.4794 35.1932 17.6594C34.9838 17.8394 34.6681 17.8156 34.4881 17.6061L35.2465 16.9543ZM31.4601 14.079C31.279 13.8704 31.3014 13.5546 31.5099 13.3736C31.7184 13.1926 32.0342 13.2149 32.2152 13.4235L31.4601 14.079ZM29.0753 9.96394C29.2675 10.1622 29.2626 10.4788 29.0643 10.671C28.866 10.8632 28.5495 10.8582 28.3573 10.66L29.0753 9.96394ZM24.9825 7.56044C24.7663 7.38864 24.7303 7.07411 24.9021 6.85792C25.0739 6.64172 25.3884 6.60573 25.6046 6.77753L24.9825 7.56044ZM21.6404 4.18386C21.885 4.31194 21.9795 4.61409 21.8514 4.85873C21.7233 5.10337 21.4212 5.19786 21.1766 5.06978L21.6404 4.18386ZM16.9673 3.3489C16.7036 3.26714 16.556 2.98704 16.6378 2.72328C16.7196 2.45952 16.9997 2.31198 17.2634 2.39374L16.9673 3.3489ZM12.6731 1.31928C12.9453 1.36541 13.1287 1.62351 13.0825 1.89577C13.0364 2.16804 12.7783 2.35136 12.5061 2.30523L12.6731 1.31928ZM7.94209 1.75099C7.66682 1.72891 7.46159 1.48786 7.48368 1.2126C7.50577 0.937344 7.74681 0.73211 8.02207 0.754198L7.94209 1.75099ZM3.3397 0.524647C3.61578 0.530648 3.83472 0.759317 3.82872 1.03539C3.82272 1.31147 3.59405 1.53041 3.31797 1.52441L3.3397 0.524647ZM76.5 18.5005C75.6921 18.5005 74.8834 18.5787 74.0728 18.7218L73.8989 17.7371C74.7602 17.5849 75.6274 17.5005 76.5 17.5005V18.5005ZM69.358 20.1782C67.8564 20.8073 66.3543 21.5623 64.8434 22.356L64.3784 21.4707C65.8967 20.673 67.4293 19.902 68.9716 19.2559L69.358 20.1782ZM60.365 24.7182C58.82 25.5053 57.2636 26.2377 55.6993 26.8111L55.3551 25.8723C56.8654 25.3185 58.3816 24.6063 59.911 23.8271L60.365 24.7182ZM50.6556 27.9825C48.9401 28.1114 47.2123 27.9272 45.4766 27.3012L45.8159 26.3605C47.4053 26.9338 48.9905 27.1048 50.5807 26.9853L50.6556 27.9825ZM41.0085 24.6434C40.3824 24.1137 39.7574 23.5143 39.1331 22.8401L39.8669 22.1607C40.4659 22.8076 41.0617 23.3786 41.6544 23.88L41.0085 24.6434ZM39.1331 22.8401C38.5882 22.2516 38.0635 21.6749 37.5567 21.1101L38.301 20.4422C38.8047 21.0035 39.3258 21.5763 39.8669 22.1607L39.1331 22.8401ZM34.4881 17.6061C33.4134 16.3558 32.4194 15.1842 31.4601 14.079L32.2152 13.4235C33.1759 14.5302 34.1782 15.7115 35.2465 16.9543L34.4881 17.6061ZM28.3573 10.66C27.2498 9.51749 26.1461 8.48515 24.9825 7.56044L25.6046 6.77753C26.8108 7.73603 27.9467 8.79965 29.0753 9.96394L28.3573 10.66ZM21.1766 5.06978C19.9056 4.40436 18.5203 3.83029 16.9673 3.3489L17.2634 2.39374C18.8715 2.8922 20.3132 3.48899 21.6404 4.18386L21.1766 5.06978ZM12.5061 2.30523C11.1099 2.06871 9.59579 1.8837 7.94209 1.75099L8.02207 0.754198C9.70094 0.888921 11.2444 1.07724 12.6731 1.31928L12.5061 2.30523ZM3.31797 1.52441C2.56987 1.50815 1.79764 1.5 1 1.5V0.5C1.80444 0.500003 2.58392 0.50822 3.3397 0.524647L3.31797 1.52441Z" fill="#5A5A5A"/>
</svg>
