<svg width="77" height="29" viewBox="0 0 77 29" fill="none" xmlns="http://www.w3.org/2000/svg">
<path d="M1 17.5005C0.723858 17.5005 0.5 17.7243 0.5 18.0005C0.5 18.2766 0.723858 18.5005 1 18.5005V17.5005ZM38 22.5004L38.3669 22.8401L38 22.5004ZM76.5 1.5C76.7761 1.5 77 1.27614 77 0.999998C77 0.723856 76.7761 0.499999 76.5 0.5V1.5ZM3.42725 18.7218C3.69918 18.7698 3.95856 18.5883 4.00658 18.3164C4.05459 18.0444 3.87307 17.7851 3.60114 17.7371L3.42725 18.7218ZM8.52841 19.2559C8.27371 19.1492 7.98074 19.2691 7.87405 19.5238C7.76735 19.7785 7.88732 20.0715 8.14202 20.1782L8.52841 19.2559ZM12.6566 22.356C12.901 22.4844 13.2033 22.3903 13.3317 22.1459C13.4602 21.9014 13.3661 21.5991 13.1216 21.4707L12.6566 22.356ZM17.589 23.8271C17.343 23.7018 17.0419 23.7996 16.9165 24.0457C16.7912 24.2917 16.889 24.5928 17.135 24.7182L17.589 23.8271ZM21.8007 26.8111C22.06 26.9062 22.3472 26.7731 22.4423 26.5138C22.5373 26.2545 22.4042 25.9673 22.1449 25.8723L21.8007 26.8111ZM26.9193 26.9853C26.6439 26.9646 26.4039 27.1711 26.3833 27.4464C26.3626 27.7218 26.569 27.9618 26.8444 27.9825L26.9193 26.9853ZM32.0234 27.3012C32.2832 27.2075 32.4178 26.921 32.3241 26.6612C32.2304 26.4015 31.9439 26.2668 31.6841 26.3605L32.0234 27.3012ZM35.8456 23.88C35.6348 24.0583 35.6085 24.3738 35.7869 24.5846C35.9652 24.7955 36.2807 24.8218 36.4915 24.6434L35.8456 23.88ZM39.9433 21.1101C40.1277 20.9046 40.1106 20.5884 39.9051 20.404C39.6995 20.2196 39.3834 20.2367 39.199 20.4422L39.9433 21.1101ZM42.2535 16.9543C42.0735 17.1637 42.0974 17.4794 42.3068 17.6594C42.5162 17.8394 42.8319 17.8156 43.0119 17.6061L42.2535 16.9543ZM46.0399 14.079C46.221 13.8704 46.1986 13.5546 45.9901 13.3736C45.7816 13.1926 45.4658 13.2149 45.2848 13.4235L46.0399 14.079ZM48.4247 9.96394C48.2325 10.1622 48.2374 10.4788 48.4357 10.671C48.634 10.8632 48.9505 10.8582 49.1427 10.66L48.4247 9.96394ZM52.5175 7.56044C52.7337 7.38864 52.7697 7.07411 52.5979 6.85792C52.4261 6.64172 52.1116 6.60573 51.8954 6.77753L52.5175 7.56044ZM55.8596 4.18386C55.615 4.31194 55.5205 4.61409 55.6486 4.85873C55.7767 5.10337 56.0788 5.19786 56.3234 5.06978L55.8596 4.18386ZM60.5327 3.3489C60.7964 3.26714 60.944 2.98704 60.8622 2.72328C60.7804 2.45952 60.5003 2.31198 60.2366 2.39374L60.5327 3.3489ZM64.8269 1.31928C64.5547 1.36541 64.3713 1.62351 64.4175 1.89577C64.4636 2.16804 64.7217 2.35136 64.9939 2.30523L64.8269 1.31928ZM69.5579 1.75099C69.8332 1.72891 70.0384 1.48786 70.0163 1.2126C69.9942 0.937344 69.7532 0.73211 69.4779 0.754198L69.5579 1.75099ZM74.1603 0.524647C73.8842 0.530648 73.6653 0.759317 73.6713 1.03539C73.6773 1.31147 73.906 1.53041 74.182 1.52441L74.1603 0.524647ZM1 18.5005C1.80788 18.5005 2.61662 18.5787 3.42725 18.7218L3.60114 17.7371C2.73975 17.5849 1.87256 17.5005 1 17.5005V18.5005ZM8.14202 20.1782C9.64364 20.8073 11.1457 21.5623 12.6566 22.356L13.1216 21.4707C11.6033 20.673 10.0707 19.902 8.52841 19.2559L8.14202 20.1782ZM17.135 24.7182C18.68 25.5053 20.2364 26.2377 21.8007 26.8111L22.1449 25.8723C20.6346 25.3185 19.1184 24.6063 17.589 23.8271L17.135 24.7182ZM26.8444 27.9825C28.5599 28.1114 30.2877 27.9272 32.0234 27.3012L31.6841 26.3605C30.0947 26.9338 28.5095 27.1048 26.9193 26.9853L26.8444 27.9825ZM36.4915 24.6434C37.1176 24.1137 37.7426 23.5143 38.3669 22.8401L37.6331 22.1607C37.0341 22.8076 36.4383 23.3786 35.8456 23.88L36.4915 24.6434ZM38.3669 22.8401C38.9118 22.2516 39.4365 21.6749 39.9433 21.1101L39.199 20.4422C38.6953 21.0035 38.1742 21.5763 37.6331 22.1607L38.3669 22.8401ZM43.0119 17.6061C44.0866 16.3558 45.0806 15.1842 46.0399 14.079L45.2848 13.4235C44.3241 14.5302 43.3218 15.7115 42.2535 16.9543L43.0119 17.6061ZM49.1427 10.66C50.2502 9.51749 51.3539 8.48515 52.5175 7.56044L51.8954 6.77753C50.6892 7.73603 49.5533 8.79965 48.4247 9.96394L49.1427 10.66ZM56.3234 5.06978C57.5944 4.40436 58.9797 3.83029 60.5327 3.3489L60.2366 2.39374C58.6285 2.8922 57.1868 3.48899 55.8596 4.18386L56.3234 5.06978ZM64.9939 2.30523C66.3901 2.06871 67.9042 1.8837 69.5579 1.75099L69.4779 0.754198C67.7991 0.888921 66.2556 1.07724 64.8269 1.31928L64.9939 2.30523ZM74.182 1.52441C74.9301 1.50815 75.7024 1.5 76.5 1.5V0.5C75.6956 0.500003 74.9161 0.50822 74.1603 0.524647L74.182 1.52441Z" fill="#5A5A5A"/>
</svg>
