<svg width="69" height="65" viewBox="0 0 69 65" fill="none" xmlns="http://www.w3.org/2000/svg">
<path d="M17 44.5L20.5 64L49.5 63.5L53 45L49.5 42H19L17 44.5Z" fill="white" fill-opacity="0.42"/>
<path d="M54.5 65C55.3284 65 56 64.3284 56 63.5C56 62.6716 55.3284 62 54.5 62V65ZM15.5 62C14.6716 62 14 62.6716 14 63.5C14 64.3284 14.6716 65 15.5 65V62ZM12.0946 37.0244C12.3843 37.8005 13.2482 38.195 14.0244 37.9054C14.8005 37.6157 15.195 36.7518 14.9054 35.9756L12.0946 37.0244ZM21.2043 37.7558C21.6218 38.4714 22.5402 38.7131 23.2558 38.2957C23.9714 37.8782 24.2131 36.9598 23.7957 36.2442L21.2043 37.7558ZM54.6421 35.9756C54.3525 36.7518 54.7469 37.6157 55.5231 37.9054C56.2992 38.195 57.1632 37.8005 57.4528 37.0244L54.6421 35.9756ZM67.2838 6.3867L65.8784 5.86231V5.86231L67.2838 6.3867ZM60.9071 3.97488L59.5065 3.43797V3.43797L60.9071 3.97488ZM50.6637 30.6968L49.2631 30.1599V30.1599L50.6637 30.6968ZM50.3838 31.2805L51.6795 32.0363V32.0363L50.3838 31.2805ZM45.7518 36.2442C45.3344 36.9598 45.5761 37.8782 46.2916 38.2957C47.0072 38.7131 47.9257 38.4714 48.3431 37.7558L45.7518 36.2442ZM65.0925 1.93694L64.6514 3.37061L65.0925 1.93694ZM2.26369 6.3867L0.858338 6.91108L2.26369 6.3867ZM18.8838 30.6968L17.4831 31.2337L18.8838 30.6968ZM19.1636 31.2805L20.4593 30.5247L19.1636 31.2805ZM53.0179 46.3016L54.4874 46.6022L53.0179 46.3016ZM8.64037 3.97488L7.23975 4.51178L8.64037 3.97488ZM20 62H15.5V65H20V62ZM21.4758 63.2317L18.3332 45.9472L15.3816 46.4839L18.5242 63.7683L21.4758 63.2317ZM20.7929 43H49.099V40H20.7929V43ZM54.5 62H49.5V65H54.5V62ZM49.5 62H20V65H49.5V62ZM51.5483 46.001L48.0304 63.1994L50.9696 63.8006L54.4874 46.6022L51.5483 46.001ZM14.9054 35.9756L3.66905 5.86231L0.858338 6.91108L12.0946 37.0244L14.9054 35.9756ZM7.23975 4.51178L17.4831 31.2337L20.2844 30.1599L10.041 3.43797L7.23975 4.51178ZM17.868 32.0363L21.2043 37.7558L23.7957 36.2442L20.4593 30.5247L17.868 32.0363ZM57.4528 37.0244L68.6891 6.91108L65.8784 5.86231L54.6421 35.9756L57.4528 37.0244ZM59.5065 3.43797L49.2631 30.1599L52.0643 31.2337L62.3077 4.51178L59.5065 3.43797ZM49.0882 30.5247L45.7518 36.2442L48.3431 37.7558L51.6795 32.0363L49.0882 30.5247ZM49.2631 30.1599C49.2147 30.286 49.1562 30.408 49.0882 30.5247L51.6795 32.0363C51.8292 31.7796 51.9579 31.5112 52.0643 31.2337L49.2631 30.1599ZM65.5336 0.503276C63.0654 -0.256182 60.4308 1.02663 59.5065 3.43797L62.3077 4.51178C62.6671 3.57412 63.6916 3.0753 64.6514 3.37061L65.5336 0.503276ZM68.6891 6.91108C69.6764 4.26512 68.2329 1.33382 65.5336 0.503276L64.6514 3.37061C65.701 3.69357 66.2623 4.83342 65.8784 5.86231L68.6891 6.91108ZM3.66905 5.86231C3.28513 4.83342 3.84644 3.69357 4.89606 3.37061L4.0138 0.503276C1.31453 1.33382 -0.12896 4.26512 0.858338 6.91108L3.66905 5.86231ZM17.4831 31.2337C17.5895 31.5112 17.7182 31.7796 17.868 32.0363L20.4593 30.5247C20.3912 30.408 20.3327 30.286 20.2844 30.1599L17.4831 31.2337ZM49.099 43C50.6811 43 51.8653 44.451 51.5483 46.001L54.4874 46.6022C55.1849 43.1922 52.5796 40 49.099 40V43ZM4.89606 3.37061C5.85584 3.0753 6.88031 3.57412 7.23975 4.51178L10.041 3.43797C9.11664 1.02663 6.48204 -0.256182 4.0138 0.503276L4.89606 3.37061ZM18.3332 45.9472C18.0542 44.4126 19.2331 43 20.7929 43V40C17.3614 40 14.7677 43.1078 15.3816 46.4839L18.3332 45.9472Z" fill="white"/>
<circle cx="34.5" cy="23.5" r="11" stroke="white" stroke-width="3"/>
<circle cx="63" cy="63" r="2" fill="white"/>
<circle cx="35.5" cy="52.5" r="2.5" fill="white"/>
</svg>
