<svg width="68" height="63" viewBox="0 0 68 63" fill="none" xmlns="http://www.w3.org/2000/svg">
<path d="M66 21H2V31H66V21Z" fill="white" fill-opacity="0.42"/>
<path d="M62 32H7L14 61H55.5L62 32Z" fill="white" fill-opacity="0.42"/>
<path d="M53.5 39.5L8.5 37L8 32.5L61 32L55.5 60H50.5L53.5 39.5Z" fill="white" fill-opacity="0.42"/>
<path d="M25 39.5C25 38.6716 24.3284 38 23.5 38C22.6716 38 22 38.6716 22 39.5H25ZM22 53C22 53.8284 22.6716 54.5 23.5 54.5C24.3284 54.5 25 53.8284 25 53H22ZM36 39.5C36 38.6716 35.3284 38 34.5 38C33.6716 38 33 38.6716 33 39.5H36ZM33 53C33 53.8284 33.6716 54.5 34.5 54.5C35.3284 54.5 36 53.8284 36 53H33ZM46 39.5C46 38.6716 45.3284 38 44.5 38C43.6716 38 43 38.6716 43 39.5H46ZM43 53C43 53.8284 43.6716 54.5 44.5 54.5C45.3284 54.5 46 53.8284 46 53H43ZM22.2851 13.6202C21.7992 14.2912 21.9493 15.229 22.6202 15.7149C23.2912 16.2008 24.229 16.0507 24.7149 15.3798L22.2851 13.6202ZM44.3409 14.9521C44.8667 15.5923 45.812 15.6849 46.4521 15.1591C47.0923 14.6333 47.1849 13.688 46.6591 13.0479L44.3409 14.9521ZM30.9597 4.19855L29.7448 3.31879L30.9597 4.19855ZM56.1917 57.8607L57.6566 58.1835L56.1917 57.8607ZM6 22.5H62.5V19.5H6V22.5ZM65 25V27.5H68V25H65ZM3.5 27.5V25H0.5V27.5H3.5ZM7 30H6V33H7V30ZM5.53514 31.8228L11.3434 58.1835L14.2732 57.5379L8.46486 31.1772L5.53514 31.8228ZM16.7146 62.5H52.2854V59.5H16.7146V62.5ZM62.5 30H62V33H62.5V30ZM62 30H7V33H62V30ZM57.6566 58.1835L63.4649 31.8228L60.5351 31.1772L54.7268 57.5379L57.6566 58.1835ZM22 39.5V53H25V39.5H22ZM33 39.5V53H36V39.5H33ZM43 39.5V53H46V39.5H43ZM24.7149 15.3798L32.1746 5.07832L29.7448 3.31879L22.2851 13.6202L24.7149 15.3798ZM36.1313 4.95774L44.3409 14.9521L46.6591 13.0479L38.4494 3.05352L36.1313 4.95774ZM32.1746 5.07832C33.1354 3.75146 35.0914 3.69185 36.1313 4.95774L38.4494 3.05352C36.1618 0.268573 31.8586 0.399705 29.7448 3.31879L32.1746 5.07832ZM52.2854 62.5C54.8669 62.5 57.1011 60.7045 57.6566 58.1835L54.7268 57.5379C54.4743 58.6839 53.4588 59.5 52.2854 59.5V62.5ZM0.5 27.5C0.5 30.5376 2.96243 33 6 33V30C4.61929 30 3.5 28.8807 3.5 27.5H0.5ZM65 27.5C65 28.8807 63.8807 30 62.5 30V33C65.5376 33 68 30.5376 68 27.5H65ZM62.5 22.5C63.8807 22.5 65 23.6193 65 25H68C68 21.9624 65.5376 19.5 62.5 19.5V22.5ZM11.3434 58.1835C11.8989 60.7045 14.1331 62.5 16.7146 62.5V59.5C15.5412 59.5 14.5257 58.6839 14.2732 57.5379L11.3434 58.1835ZM6 19.5C2.96243 19.5 0.5 21.9624 0.5 25H3.5C3.5 23.6193 4.61929 22.5 6 22.5V19.5Z" fill="white"/>
<circle cx="14" cy="26" r="2" stroke="white" stroke-width="3" stroke-linecap="round" stroke-linejoin="round"/>
<circle cx="55" cy="26" r="2" stroke="white" stroke-width="3" stroke-linecap="round" stroke-linejoin="round"/>
</svg>
